<?xml version="1.0" standalone="no"?>
<!DOCTYPE svg PUBLIC "-//W3C//DTD SVG 20010904//EN"
 "http://www.w3.org/TR/2001/REC-SVG-20010904/DTD/svg10.dtd">
<svg version="1.0" xmlns="http://www.w3.org/2000/svg"
 width="640.000000pt" height="784.000000pt" viewBox="0 0 640.000000 784.000000"
 preserveAspectRatio="xMidYMid meet">

<g transform="translate(0.000000,784.000000) scale(0.100000,-0.100000)"
fill="#000000" stroke="none">
<path d="M3375 7738 c-15 -51 -37 -117 -47 -145 l-19 -52 -149 -3 -150 -3 116
-85 c64 -47 117 -88 119 -91 2 -3 -16 -68 -40 -144 -24 -77 -43 -140 -41 -142
2 -2 39 22 82 53 43 32 98 71 120 87 l41 29 55 -38 c31 -22 86 -61 123 -87 37
-26 69 -47 71 -45 1 2 -18 66 -43 142 -24 76 -41 142 -36 146 4 4 59 47 121
94 l114 85 -153 3 -153 3 -44 135 c-24 74 -47 138 -51 143 -4 4 -20 -34 -36
-85z"/>
<path d="M2890 7344 c-387 -36 -645 -104 -909 -239 -537 -275 -887 -787 -975
-1427 -35 -251 -20 -568 40 -824 62 -270 171 -513 313 -699 167 -219 381 -380
596 -449 259 -82 483 -52 641 87 150 132 194 361 103 539 -47 93 -155 211
-309 338 -237 197 -381 372 -469 574 -150 342 -160 725 -29 1111 77 229 181
398 353 570 204 205 460 340 765 404 l95 20 -90 -1 c-49 -1 -106 -3 -125 -4z"/>
<path d="M3875 7033 c-241 -20 -397 -50 -585 -113 -254 -84 -517 -226 -699
-378 -372 -309 -570 -674 -571 -1047 0 -238 59 -397 193 -523 31 -29 87 -67
124 -85 65 -30 74 -32 188 -32 115 0 123 1 189 33 87 41 184 138 244 244 24
42 72 146 107 232 98 239 140 320 232 445 331 448 981 661 1569 516 397 -99
725 -357 934 -737 41 -73 37 -48 -9 74 -73 191 -202 444 -284 556 -182 249
-334 399 -536 530 -254 164 -533 257 -850 281 -132 11 -163 11 -246 4z"/>
<path d="M479 5909 l-45 -140 -147 0 c-96 0 -147 -4 -147 -11 0 -5 7 -7 16 -4
8 3 12 2 9 -4 -3 -5 33 -38 81 -72 139 -101 127 -80 100 -173 -14 -44 -34
-107 -45 -139 -12 -33 -20 -61 -18 -63 2 -1 56 35 121 82 64 47 119 85 121 85
3 0 43 -27 90 -61 48 -34 90 -57 97 -53 6 4 8 3 4 -4 -3 -6 8 -20 25 -33 l31
-22 -7 24 c-30 99 -59 190 -71 223 -17 44 -31 28 118 137 54 39 100 74 102 77
2 4 -21 7 -52 7 -32 0 -98 1 -149 3 l-91 2 -47 140 c-26 77 -47 140 -48 140
-1 0 -23 -63 -48 -141z"/>
<path d="M3925 5979 c-103 -15 -237 -59 -325 -106 -107 -57 -115 -63 -98 -75
9 -6 6 -7 -8 -3 -47 13 -177 -167 -208 -290 -21 -79 -20 -136 4 -223 23 -81
54 -138 109 -195 43 -46 148 -110 168 -103 8 3 12 2 9 -2 -6 -10 74 -36 154
-51 58 -10 126 -17 275 -26 434 -27 741 -166 1002 -451 359 -392 500 -927 377
-1419 -31 -123 -98 -282 -159 -380 -26 -42 -43 -80 -39 -86 4 -7 3 -9 -4 -5
-11 7 -79 -80 -74 -96 1 -5 -2 -7 -6 -4 -5 3 -17 -3 -27 -14 -26 -29 -5 -50
22 -23 10 10 36 32 56 47 29 22 35 31 25 39 -9 6 -8 7 5 3 13 -4 45 23 121 99
117 119 222 243 212 252 -3 3 -6 1 -6 -7 0 -9 -3 -10 -13 -1 -10 8 -17 7 -25
-1 -9 -9 -12 -9 -12 0 0 12 7 14 48 15 32 0 115 111 106 142 -4 14 -3 16 4 7
7 -10 22 8 57 67 103 177 179 387 216 601 18 110 20 150 16 330 -4 169 -9 226
-30 323 -26 120 -57 226 -83 284 -8 17 -14 35 -14 41 0 19 -27 62 -35 54 -5
-4 -5 -1 -1 6 10 18 -61 165 -76 156 -7 -4 -8 -3 -4 5 8 13 -60 141 -75 141
-6 0 -8 4 -5 9 7 11 -43 77 -55 73 -6 -1 -8 1 -5 6 4 8 -65 112 -98 149 -6 6
-40 45 -76 86 -36 42 -71 76 -79 76 -8 1 -12 4 -9 7 4 3 -12 22 -35 42 -23 20
-44 40 -47 43 -12 15 -180 148 -201 160 -13 7 -30 12 -38 10 -7 -1 -10 2 -7 7
6 10 -23 33 -74 60 -14 7 -58 31 -98 54 -40 22 -80 37 -88 34 -8 -3 -13 -2
-10 3 8 12 -135 66 -251 95 -172 44 -344 56 -488 35z m5 -39 c8 -5 11 -10 5
-10 -5 0 -17 5 -25 10 -8 5 -10 10 -5 10 6 0 17 -5 25 -10z m-250 -74 c0 -2
-7 -7 -16 -10 -8 -3 -12 -2 -9 4 6 10 25 14 25 6z m-170 -100 c-4 -4 -16 -4
-26 2 -16 9 -14 10 8 9 15 -1 23 -6 18 -11z m-84 -54 c0 -10 -8 -18 -18 -18
-16 0 -16 2 -1 18 9 10 17 18 17 18 1 0 2 -8 2 -18z m1491 -15 c0 -7 -9 -13
-19 -13 -18 0 -18 1 -2 13 10 7 18 13 19 13 1 0 2 -6 2 -13z m68 -35 c-3 -3
-11 0 -18 7 -9 10 -8 11 6 5 10 -3 15 -9 12 -12z m20 -50 c-3 -3 -11 0 -18 7
-9 10 -8 11 6 5 10 -3 15 -9 12 -12z m-1658 -24 c-3 -8 -6 -5 -6 6 -1 11 2 17
5 13 3 -3 4 -12 1 -19z m1810 -80 c-3 -8 -6 -5 -6 6 -1 11 2 17 5 13 3 -3 4
-12 1 -19z m-1737 -413 c13 -14 21 -25 18 -25 -2 0 -15 11 -28 25 -13 14 -21
25 -18 25 2 0 15 -11 28 -25z m2140 -36 c0 -4 -5 -11 -12 -15 -7 -4 -8 -3 -4
4 4 6 2 22 -4 34 -11 22 -10 22 4 4 9 -11 16 -23 16 -27z m-1967 -46 c3 -5 -8
-8 -25 -9 -20 -1 -25 2 -16 7 16 11 35 11 41 2z m412 -73 c3 -6 -1 -7 -9 -4
-18 7 -21 14 -7 14 6 0 13 -4 16 -10z m-168 -6 c-3 -3 -12 -4 -19 -1 -8 3 -5
6 6 6 11 1 17 -2 13 -5z m340 0 c-3 -3 -12 -4 -19 -1 -8 3 -5 6 6 6 11 1 17
-2 13 -5z m296 -71 c-7 -2 -21 -2 -30 0 -10 3 -4 5 12 5 17 0 24 -2 18 -5z
m1228 -120 c-12 -20 -14 -14 -5 12 4 9 9 14 11 11 3 -2 0 -13 -6 -23z m-904
-37 c0 -8 -6 -12 -15 -9 -11 5 -11 7 0 14 7 5 13 9 14 9 0 0 1 -6 1 -14z m990
-198 c-3 -8 -6 -5 -6 6 -1 11 2 17 5 13 3 -3 4 -12 1 -19z m-757 -43 c19 -22
8 -25 -12 -3 -10 10 -14 18 -9 18 5 0 14 -7 21 -15z m827 -197 c-3 -8 -6 -5
-6 6 -1 11 2 17 5 13 3 -3 4 -12 1 -19z m-595 -110 c-8 -8 -9 -4 -5 13 4 13 8
18 11 10 2 -7 -1 -18 -6 -23z m55 -160 c-3 -8 -6 -5 -6 6 -1 11 2 17 5 13 3
-3 4 -12 1 -19z m580 -100 c-3 -8 -6 -5 -6 6 -1 11 2 17 5 13 3 -3 4 -12 1
-19z m-20 -90 c-3 -8 -6 -5 -6 6 -1 11 2 17 5 13 3 -3 4 -12 1 -19z m-20 -90
c-3 -8 -6 -5 -6 6 -1 11 2 17 5 13 3 -3 4 -12 1 -19z m-324 -773 c-3 -9 -8
-14 -10 -11 -3 3 -2 9 2 15 9 16 15 13 8 -4z m13 -23 c-17 -16 -18 -16 -5 5 7
12 15 20 18 17 3 -2 -3 -12 -13 -22z m-251 -281 c3 -5 0 -13 -6 -17 -8 -4 -9
-3 -5 4 4 7 2 12 -3 12 -6 0 -11 -5 -11 -12 0 -6 -3 -9 -6 -5 -7 7 4 27 16 27
5 0 11 -4 15 -9z"/>
<path d="M5940 5529 l-45 -141 -150 -4 c-82 -3 -150 -6 -151 -7 -1 -1 51 -40
117 -87 65 -47 119 -88 119 -92 0 -4 -20 -69 -45 -145 -24 -75 -43 -138 -41
-140 3 -3 47 28 163 114 40 29 77 53 82 53 5 0 62 -38 127 -84 65 -47 119 -84
121 -83 1 2 -18 65 -43 142 -24 77 -44 140 -44 141 0 1 54 43 121 93 l121 91
-124 1 c-68 1 -132 1 -143 0 -11 -1 -25 2 -30 6 -6 5 -31 70 -55 146 -25 75
-47 137 -50 137 -3 0 -25 -64 -50 -141z"/>
<path d="M436 5132 c-99 -398 -110 -722 -36 -1057 31 -144 92 -321 109 -318 5
2 8 -4 5 -11 -3 -8 13 -50 36 -93 323 -608 955 -995 1720 -1054 551 -43 1066
154 1329 510 56 75 125 216 117 238 -3 8 -2 12 3 9 5 -3 13 13 19 37 46 186 2
367 -117 480 -110 105 -209 143 -347 134 -136 -10 -232 -51 -474 -202 -63 -40
-145 -88 -182 -108 -37 -19 -64 -38 -60 -41 3 -4 -1 -4 -10 -1 -9 4 -31 -1
-49 -10 -161 -84 -456 -123 -691 -92 -189 25 -413 100 -566 190 -36 21 -69 34
-80 31 -12 -4 -13 -3 -4 3 9 7 -11 25 -70 66 -46 31 -112 83 -147 116 -36 33
-69 57 -74 54 -6 -3 -7 -1 -3 6 4 6 -6 25 -23 44 -65 67 -93 105 -148 192
-107 171 -179 361 -209 555 -15 96 -19 334 -8 423 4 26 4 47 2 47 -3 0 -22
-67 -42 -148z"/>
<path d="M3132 4995 c-77 -252 -112 -280 -389 -318 -79 -10 -99 -19 -70 -30
35 -13 222 -165 244 -198 36 -54 40 -128 14 -276 -12 -66 -21 -124 -21 -128 0
-6 69 43 80 56 14 17 165 109 196 119 66 22 126 8 265 -62 71 -35 129 -61 129
-58 0 3 -13 44 -29 90 -57 164 -65 214 -44 282 12 43 32 69 119 158 57 59 104
110 104 113 0 4 -66 7 -147 7 -173 0 -206 11 -267 81 -21 24 -63 95 -93 157
-30 61 -55 112 -57 112 -1 0 -16 -47 -34 -105z"/>
<path d="M4700 2360 l-45 -140 -154 0 -154 0 46 -35 c25 -19 52 -32 60 -29 8
3 18 1 22 -5 3 -7 0 -8 -9 -5 -34 13 -13 -7 54 -52 39 -26 70 -52 70 -58 0 -6
-16 -60 -35 -120 -19 -59 -32 -113 -28 -119 3 -5 1 -7 -4 -4 -6 4 -13 -3 -16
-15 -8 -29 -6 -30 23 -7 59 46 209 149 219 149 5 0 29 -15 53 -32 24 -18 70
-51 103 -73 33 -22 63 -44 67 -50 4 -5 9 -7 12 -4 4 4 -58 211 -78 260 -5 12
24 38 114 105 l121 89 -150 3 -149 3 -42 132 c-23 72 -45 135 -49 139 -4 5
-27 -55 -51 -132z m173 -187 c-7 -2 -19 -2 -25 0 -7 3 -2 5 12 5 14 0 19 -2
13 -5z m137 -38 c-7 -9 -15 -13 -19 -10 -3 3 1 10 9 15 21 14 24 12 10 -5z
m-449 -52 c13 -17 13 -17 -6 -3 -11 8 -22 16 -24 17 -2 2 0 3 6 3 6 0 17 -8
24 -17z m56 -135 c-3 -7 -5 -2 -5 12 0 14 2 19 5 13 2 -7 2 -19 0 -25z m290
-70 c-3 -8 -6 -5 -6 6 -1 11 2 17 5 13 3 -3 4 -12 1 -19z"/>
<path d="M5021 2384 c-45 -45 -36 -51 12 -9 21 18 34 35 30 38 -5 3 -24 -10
-42 -29z"/>
<path d="M3580 1276 l0 -137 -65 2 c-36 1 -65 5 -65 8 0 12 53 86 86 121 50
53 39 60 -126 76 -79 7 -147 11 -152 8 -4 -3 -8 -40 -8 -82 0 -96 -20 -182
-65 -278 -33 -71 -33 -75 -12 -68 43 14 213 140 225 166 2 5 44 8 93 8 l89 0
0 -105 0 -105 -177 -2 c-150 -3 -178 -5 -178 -18 0 -12 18 -16 93 -18 l92 -3
0 -43 c0 -160 -77 -355 -188 -476 -40 -43 -42 -44 -57 -26 -12 16 -15 58 -15
228 l0 208 40 28 c66 46 60 55 -94 147 l-99 59 -53 -57 -52 -56 -74 -3 c-59
-2 -73 -6 -76 -20 -3 -15 8 -18 80 -20 l83 -3 3 -249 c1 -137 -1 -253 -6 -258
-4 -4 -43 -14 -86 -23 -44 -8 -81 -17 -84 -20 -6 -5 45 -207 61 -242 14 -32
34 -28 54 11 10 19 65 71 128 121 61 48 115 92 122 97 8 7 20 -3 39 -34 51
-83 111 -125 216 -154 55 -15 742 -42 773 -30 8 3 15 18 15 33 0 50 20 101 52
132 17 17 29 34 25 37 -3 4 -156 6 -339 5 -312 -2 -574 10 -622 29 -21 8 -21
8 -1 16 142 53 235 121 297 219 44 68 86 192 96 279 4 33 12 61 19 63 9 3 13
-59 15 -256 4 -334 -17 -305 226 -309 111 -2 191 1 215 8 47 14 93 75 102 135
8 50 -3 75 -53 122 -33 31 -34 36 -29 83 6 50 -3 70 -20 47 -5 -6 -25 -47 -44
-90 -37 -85 -45 -90 -120 -85 l-44 3 -3 172 -2 172 146 3 c103 2 149 7 151 15
5 14 -191 173 -212 173 -8 0 -43 -34 -77 -75 -44 -53 -69 -75 -85 -75 -22 0
-23 2 -23 105 l0 105 168 2 c138 3 167 6 167 17 0 18 -173 151 -196 151 -10 0
-39 -27 -66 -59 -26 -33 -54 -60 -60 -60 -9 -1 -13 21 -13 78 0 77 1 80 30
101 32 23 40 54 15 64 -8 3 -73 8 -145 12 l-130 7 0 -137z"/>
<path d="M4873 1358 c-19 -25 -212 -460 -218 -492 -9 -44 15 -68 62 -64 34 3
37 6 107 143 39 77 75 145 78 151 5 8 23 9 60 2 99 -18 320 19 434 73 72 34
154 115 154 153 0 44 -30 50 -118 24 -94 -27 -228 -28 -312 -2 -73 22 -233 30
-247 12z"/>
<path d="M2780 1349 c0 -4 13 -22 30 -40 34 -37 71 -112 90 -181 13 -50 47
-93 82 -104 57 -18 143 32 154 91 18 99 -53 178 -196 218 -63 18 -160 27 -160
16z"/>
<path d="M1188 1206 c-45 -24 -99 -47 -118 -51 -93 -19 -106 -70 -31 -115 79
-46 85 -69 89 -330 5 -312 -4 -343 -116 -399 -47 -24 -73 -64 -54 -83 17 -17
573 -18 579 -1 12 31 -9 64 -65 101 -31 20 -63 51 -71 67 -12 24 -14 96 -12
393 3 406 0 425 -55 448 -48 20 -53 19 -146 -30z"/>
<path d="M1995 1206 c-43 -25 -96 -48 -117 -51 -85 -15 -104 -77 -34 -110 86
-41 95 -75 96 -367 0 -144 -4 -248 -11 -265 -14 -37 -57 -81 -94 -98 -59 -25
-92 -73 -63 -91 7 -5 138 -8 291 -9 256 0 280 1 288 18 15 26 -5 54 -66 93
-30 19 -60 44 -67 57 -10 16 -14 123 -18 419 -5 387 -6 398 -26 418 -39 40
-89 35 -179 -14z"/>
<path d="M5010 950 c-90 -15 -149 -51 -150 -92 0 -25 26 -35 112 -41 134 -9
215 -64 244 -165 41 -140 -49 -320 -195 -388 -97 -46 -189 -59 -326 -45 -112
11 -120 10 -138 -8 -86 -85 196 -149 473 -106 146 22 270 67 343 123 130 101
213 285 186 414 -18 81 -44 134 -93 186 -97 104 -278 152 -456 122z"/>
</g>
</svg>
