<?xml version="1.0" standalone="no"?>
<!DOCTYPE svg PUBLIC "-//W3C//DTD SVG 20010904//EN"
 "http://www.w3.org/TR/2001/REC-SVG-20010904/DTD/svg10.dtd">
<svg version="1.0" xmlns="http://www.w3.org/2000/svg"
 width="800.000000pt" height="800.000000pt" viewBox="0 0 800.000000 800.000000"
 preserveAspectRatio="xMidYMid meet">

<g transform="translate(0.000000,800.000000) scale(0.100000,-0.100000)"
fill="#000000" stroke="none">
<path d="M0 4000 l0 -4000 4000 0 4000 0 0 4000 0 4000 -4000 0 -4000 0 0
-4000z m1887 3631 c9 -24 15 -28 37 -24 14 3 37 2 51 -1 20 -5 25 -13 25 -36
0 -34 -15 -40 -23 -10 -5 18 -14 20 -101 20 -53 0 -96 4 -96 9 0 14 34 23 64
17 23 -4 24 -2 16 19 -8 22 -5 35 9 35 4 0 12 -13 18 -29z m-1209 -50 c-2 -39
-7 -73 -10 -77 -4 -4 -53 -9 -108 -11 -80 -4 -100 -2 -101 8 -2 31 2 105 7
122 8 27 27 20 20 -7 -5 -21 -2 -25 24 -31 16 -4 44 -5 62 -3 19 2 33 -2 35
-9 4 -10 -13 -13 -61 -13 -58 0 -66 -2 -66 -19 0 -26 14 -29 90 -24 75 5 90
18 90 74 l0 37 -75 -5 c-69 -5 -88 0 -68 20 3 4 42 7 86 7 l79 0 -4 -69z m273
52 c1 -10 1 -21 0 -25 -1 -10 41 -10 55 0 6 4 13 15 17 25 8 20 27 14 27 -9 0
-8 7 -14 15 -14 8 0 15 -7 15 -15 0 -12 -16 -15 -85 -15 -50 0 -85 4 -85 10 0
6 6 10 14 10 9 0 12 8 8 25 -2 15 0 25 7 25 6 0 12 -8 12 -17z m473 -15 c9
-12 16 -26 16 -30 0 -17 -20 -6 -40 22 -17 24 -18 30 -6 30 8 0 22 -10 30 -22z
m330 -26 c-1 -7 -2 -28 -2 -47 -3 -55 -22 -41 -22 16 0 36 4 49 13 47 6 -3 12
-10 11 -16z m-750 -37 c3 -8 17 -15 31 -15 32 0 33 -18 0 -26 -30 -7 -31 -12
-8 -30 23 -16 18 -20 -39 -27 -37 -5 -48 -3 -48 7 0 8 9 16 20 19 28 7 25 27
-5 27 -14 0 -25 4 -25 9 0 5 11 12 25 15 14 4 25 13 25 21 0 19 16 19 24 0z
m526 -6 c0 -6 -16 -37 -35 -69 -19 -32 -35 -62 -35 -68 0 -6 18 -13 40 -17 40
-7 58 -19 42 -29 -5 -3 -47 2 -92 10 l-83 16 -18 -23 c-23 -31 -35 -18 -19 21
11 28 15 29 51 24 37 -6 38 -5 73 49 20 31 36 61 36 68 0 9 -21 10 -80 6 -44
-4 -80 -2 -80 2 0 16 22 19 113 20 58 1 87 -3 87 -10z m374 -15 c31 -12 15
-24 -31 -24 -45 -1 -50 -4 -82 -45 -18 -25 -37 -45 -42 -45 -18 0 -8 27 21 55
22 21 27 32 19 41 -7 9 -5 14 8 17 28 7 90 8 107 1z m-20 -112 c9 -23 16 -54
16 -67 0 -21 -5 -25 -30 -25 -20 0 -30 5 -30 15 0 8 7 15 15 15 8 0 15 6 15
14 0 7 -7 30 -15 49 -8 20 -15 44 -15 54 0 27 23 -3 44 -55z m86 61 c0 -12
-33 -43 -47 -43 -20 0 -16 17 9 34 24 17 38 20 38 9z m-1386 -18 c3 -8 15 -15
26 -15 11 0 20 -7 20 -15 0 -8 -9 -15 -20 -15 -22 0 -27 -16 -7 -23 9 -3 9 -7
-1 -20 -12 -14 -9 -16 25 -19 21 -2 37 -7 36 -13 -4 -14 -193 -19 -193 -5 0 5
20 10 45 10 25 0 45 5 45 10 0 6 -13 10 -30 10 -16 0 -30 4 -30 9 0 5 14 12
30 16 45 10 36 25 -15 25 -39 0 -45 -3 -51 -25 -3 -14 -12 -25 -20 -25 -17 0
-2 44 27 80 19 23 20 23 16 4 -4 -20 -2 -21 34 -11 22 5 39 16 39 23 0 19 16
18 24 -1z m416 -24 c0 -4 19 -5 43 0 57 11 57 11 57 -4 0 -9 -23 -18 -62 -25
-50 -9 -67 -17 -86 -42 -28 -35 -51 -30 -27 6 14 22 14 24 -1 24 -25 0 -10 25
17 28 13 2 28 8 34 13 11 11 25 12 25 0z m800 -15 c0 -16 -28 -42 -36 -33 -8
7 14 47 26 47 6 0 10 -6 10 -14z m164 -21 c36 -15 48 -35 21 -35 -20 0 -85 32
-85 42 0 12 24 10 64 -7z m-134 -3 c0 -13 -30 -52 -41 -52 -14 0 -11 22 8 42
17 19 33 24 33 10z m-762 -24 c44 -24 54 -38 25 -38 -23 0 -83 36 -83 50 0 15
10 13 58 -12z m3103 -378 c132 -16 288 -63 399 -122 96 -50 224 -140 262 -183
12 -14 26 -22 31 -18 6 3 7 2 4 -4 -7 -10 39 -60 51 -55 4 1 7 -4 7 -10 0 -7
8 -12 18 -12 9 1 15 -2 12 -6 -9 -15 7 -41 22 -36 8 3 11 1 8 -4 -3 -5 19 -50
49 -100 30 -51 58 -100 61 -111 4 -11 11 -16 17 -13 7 4 8 2 4 -5 -4 -6 -1
-22 7 -34 8 -12 20 -39 26 -60 8 -22 17 -34 24 -30 6 4 8 0 4 -10 -3 -9 0 -34
8 -56 7 -22 17 -60 20 -85 4 -25 10 -46 14 -46 3 0 7 -19 8 -41 1 -30 9 -49
29 -70 15 -16 32 -29 37 -29 5 0 35 -23 67 -51 32 -28 64 -48 69 -44 7 4 8 0
4 -11 -4 -11 -3 -15 4 -11 15 10 43 -2 43 -18 0 -7 6 -15 13 -18 7 -2 8 -8 3
-13 -5 -5 -10 -4 -13 2 -7 21 -32 49 -33 37 0 -6 14 -26 31 -43 17 -17 29 -33
26 -36 -3 -3 2 -14 11 -25 9 -11 17 -23 18 -27 2 -21 17 -41 26 -36 6 4 8 -2
3 -15 -9 -29 6 -51 17 -25 6 13 6 10 3 -11 -4 -23 3 -43 29 -85 19 -30 41 -63
50 -72 9 -10 16 -23 16 -28 0 -6 8 -23 18 -37 9 -15 11 -24 5 -20 -15 9 -15 1
-3 -28 6 -14 9 -15 10 -5 2 22 19 -19 18 -45 0 -16 -2 -14 -7 5 -4 14 -6 -54
-5 -150 3 -219 -11 -324 -57 -427 -10 -24 -19 -47 -19 -51 0 -5 -16 -30 -35
-56 -28 -36 -34 -50 -26 -64 10 -16 10 -16 11 1 0 9 15 39 33 65 19 26 32 53
29 61 -3 8 0 11 7 7 6 -4 12 0 13 11 2 32 4 38 21 70 9 18 17 56 18 85 1 39 3
47 8 28 5 -16 8 8 10 65 1 50 5 115 10 145 6 43 7 28 6 -67 0 -68 3 -123 7
-123 4 0 -1 -19 -11 -43 -10 -24 -22 -62 -26 -85 -4 -23 -10 -42 -15 -42 -14
0 -30 -63 -24 -96 3 -19 1 -34 -6 -39 -7 -5 -9 1 -4 19 9 36 -9 33 -23 -4 -11
-28 -10 -30 13 -30 l24 0 0 -120 c0 -113 -1 -120 -20 -120 -17 0 -20 -7 -20
-40 0 -33 3 -40 20 -40 17 0 20 -7 20 -40 l0 -40 -40 0 -40 0 0 -120 0 -120
-40 0 -40 0 0 -80 0 -80 -40 0 -40 0 0 -40 0 -40 -40 0 c-40 0 -40 0 -40 -38
l0 -37 -117 -3 c-65 -2 -120 -8 -121 -13 -2 -5 -21 -12 -43 -15 -36 -6 -40
-10 -53 -53 l-15 -46 0 38 c-1 20 -6 37 -11 37 -7 0 -9 -14 -5 -35 3 -19 7
-51 11 -70 3 -20 9 -33 15 -30 16 11 10 -56 -8 -73 -14 -15 -15 -37 -10 -202
4 -102 7 -225 7 -273 0 -56 4 -86 10 -82 6 3 10 -1 10 -10 0 -9 -4 -13 -10
-10 -10 6 -10 2 20 -346 11 -125 20 -236 20 -248 0 -11 5 -21 11 -21 5 0 8 4
5 9 -4 5 9 6 29 1 19 -4 36 -6 38 -4 2 2 12 -22 23 -53 14 -42 34 -72 76 -115
123 -125 104 -239 -63 -373 -47 -38 -215 -116 -321 -150 -191 -60 -355 -89
-643 -110 -388 -30 -719 -11 -1115 65 -140 26 -312 77 -405 119 -22 10 -65 29
-95 42 -182 77 -340 232 -340 333 0 44 32 99 88 153 61 58 66 62 99 99 17 19
32 24 67 24 25 0 48 5 51 10 3 6 15 10 25 10 31 0 40 32 40 138 0 98 0 99 -33
133 -111 116 -154 233 -144 394 8 116 29 185 114 375 84 186 173 453 173 520
0 11 -18 48 -40 81 -22 33 -40 64 -40 68 0 4 -6 13 -12 19 -7 7 -13 16 -13 20
-1 4 -7 18 -14 31 -7 13 -16 67 -20 119 -5 81 -9 97 -26 106 -11 6 -22 13 -25
17 -3 3 -21 16 -40 30 -186 135 -247 184 -325 263 -49 50 -106 112 -125 139
-30 40 -39 46 -60 41 -14 -3 -35 -15 -47 -26 -13 -12 -25 -19 -28 -16 -10 9
14 58 39 81 23 21 24 25 11 48 -8 13 -18 32 -21 42 -4 10 -13 16 -21 13 -8 -3
-11 -1 -8 4 3 6 1 10 -4 10 -14 0 -14 27 -1 32 14 4 -8 160 -24 170 -8 5 -7
11 2 20 7 7 12 37 12 70 0 73 18 200 36 258 24 73 67 185 74 190 3 3 23 37 44
75 49 89 144 196 266 296 118 99 98 84 210 157 52 34 100 67 107 72 7 6 17 10
22 10 9 0 31 60 31 86 0 22 62 165 94 218 99 164 278 319 482 416 49 23 96 46
104 50 9 4 56 19 105 34 50 14 106 31 125 37 68 20 273 44 369 43 54 -1 141
-7 192 -14z m906 -562 c-3 -8 -6 -5 -6 6 -1 11 2 17 5 13 3 -3 4 -12 1 -19z
m207 -532 c-4 -10 3 -16 23 -18 22 -2 28 -9 30 -28 1 -14 -1 -17 -3 -8 -3 9
-18 21 -35 27 -27 9 -42 41 -19 41 5 0 7 -6 4 -14z m309 -321 c-3 -9 -8 -14
-10 -11 -3 3 -2 9 2 15 9 16 15 13 8 -4z m73 -164 c2 -8 1 -8 -3 0 -4 8 -7 8
-13 -1 -5 -9 -9 -8 -13 3 -4 10 0 14 11 13 9 -2 17 -8 18 -15z m54 -65 c0 -11
-19 -15 -25 -6 -3 5 1 10 9 10 9 0 16 -2 16 -4z m37 -38 c-3 -8 -6 -5 -6 6 -1
11 2 17 5 13 3 -3 4 -12 1 -19z m-13 -182 c-4 -37 -9 -64 -12 -62 -2 3 -1 35
3 71 4 37 9 65 11 62 3 -2 2 -34 -2 -71z m-3932 12 c-11 -11 -32 -3 -32 12 0
4 9 6 21 3 13 -4 17 -9 11 -15z m-74 -20 c-8 -12 -21 -24 -29 -26 -9 -2 -10
-1 -3 5 6 4 13 16 17 26 3 9 12 17 18 17 8 0 7 -7 -3 -22z m-496 -30 c-7 -7
-12 -8 -12 -2 0 14 12 26 19 19 2 -3 -1 -11 -7 -17z m-29 -25 c-4 -11 -3 -14
5 -9 7 4 12 4 12 -1 0 -4 -13 -14 -30 -21 -16 -8 -30 -20 -30 -27 0 -8 -4 -16
-10 -20 -17 -10 -58 6 -63 25 -4 16 0 19 32 17 26 -1 36 2 36 13 0 11 31 35
52 40 1 0 -1 -7 -4 -17z m-153 -33 c0 -5 -4 -10 -10 -10 -5 0 -10 5 -10 10 0
6 5 10 10 10 6 0 10 -4 10 -10z m18 -39 c12 -7 11 -56 -1 -68 -9 -8 -36 47
-31 61 7 18 13 19 32 7z m751 -137 c12 -15 21 -34 21 -43 0 -10 5 -22 12 -29
9 -9 9 -15 0 -24 -7 -7 -12 -9 -12 -5 0 15 -5 23 -27 47 -12 13 -25 21 -29 17
-12 -11 -33 13 -27 30 4 11 2 14 -5 9 -7 -4 -12 -2 -12 4 0 7 8 9 20 5 11 -4
20 -2 20 4 0 19 18 12 39 -15z m-279 -67 c0 -19 -1 -19 -20 3 -11 12 -17 27
-14 32 9 14 34 -12 34 -35z m360 -27 c0 -5 -4 -10 -10 -10 -5 0 -10 5 -10 10
0 6 5 10 10 10 6 0 10 -4 10 -10z m-165 -9 c7 -13 -14 -26 -42 -26 -28 -1 -29
4 -5 21 20 16 39 18 47 5z m-176 -13 c-3 -26 1 -39 14 -37 38 5 49 -11 24 -35
-17 -17 -37 -9 -37 15 0 10 -4 19 -9 19 -10 0 -21 36 -13 44 10 10 23 6 21 -6z
m-63 -12 c17 -18 19 -59 2 -54 -12 4 -31 68 -21 68 2 0 11 -6 19 -14z m250
-32 c-3 -9 -6 -19 -6 -23 0 -4 -14 -15 -31 -25 -19 -11 -27 -21 -20 -25 6 -4
12 -24 13 -44 2 -20 6 -37 11 -37 4 0 7 -5 7 -10 0 -6 -8 -5 -19 2 -11 7 -18
15 -15 19 2 4 -5 11 -16 14 -15 5 -18 10 -11 19 15 18 -3 40 -28 33 -12 -3
-23 -1 -26 4 -7 11 31 49 48 49 18 0 67 24 67 33 0 4 7 7 16 7 11 0 14 -5 10
-16z m115 -18 c7 -17 19 -39 27 -49 19 -21 11 -31 -18 -22 -13 4 -19 12 -16
21 3 8 2 13 -3 10 -5 -3 -11 1 -15 9 -3 8 -12 15 -19 15 -19 0 -40 26 -33 39
4 5 20 9 36 9 23 -1 31 -8 41 -32z m3881 9 c-2 -14 -6 -25 -8 -25 -2 0 -4 11
-4 25 0 14 4 25 9 25 4 0 6 -11 3 -25z m-3918 -151 c3 -8 10 -12 16 -9 14 9
12 -12 -5 -65 l-15 -45 6 48 c6 44 -5 63 -21 37 -8 -13 -16 -12 -39 5 -11 8
-16 21 -13 30 8 20 63 20 71 -1z m-264 -63 c0 -5 -7 -14 -15 -21 -16 -14 -18
-10 -9 14 6 17 24 22 24 7z m64 -67 c-6 -25 -29 -39 -128 -78 -21 -9 -42 -13
-47 -10 -13 7 -11 48 3 79 11 24 16 26 47 20 20 -4 42 -12 50 -18 11 -10 13
-8 7 11 -5 13 -3 22 3 22 6 0 11 -5 11 -11 0 -5 4 -8 9 -5 5 3 7 16 3 28 -4
17 -2 20 11 15 10 -4 17 -1 18 6 0 7 4 2 10 -11 5 -13 6 -35 3 -48z m-134
-254 c4 -15 0 -34 -8 -47 -15 -24 -42 -31 -42 -12 0 6 -7 3 -16 -5 -8 -9 -23
-16 -32 -16 -12 0 -9 7 13 24 24 19 33 22 44 13 12 -9 13 -9 7 1 -4 7 0 19 9
28 9 9 13 19 10 22 -3 3 -11 0 -17 -6 -18 -18 -27 -14 -21 9 8 29 45 21 53
-11z m-70 -20 c0 -5 -7 -10 -16 -10 -8 0 -12 5 -9 10 3 6 10 10 16 10 5 0 9
-4 9 -10z m1150 -30 c12 -7 10 -9 -8 -7 -12 0 -22 5 -22 9 0 11 12 10 30 -2z
m2510 -655 c0 -9 -6 -12 -15 -9 -8 4 -15 10 -15 15 0 5 7 9 15 9 8 0 15 -7 15
-15z m-53 -37 c-3 -8 -6 -5 -6 6 -1 11 2 17 5 13 3 -3 4 -12 1 -19z m-10 -50
c-3 -8 -6 -5 -6 6 -1 11 2 17 5 13 3 -3 4 -12 1 -19z m1552 -10 c34 -80 39
-108 28 -143 -9 -29 -15 -35 -39 -35 -22 0 -31 6 -39 28 -14 37 4 168 22 156
5 -3 6 2 3 10 -12 31 12 15 25 -16z m-1558 -175 c-9 -16 -10 -15 -11 8 0 14 3
29 8 33 12 12 14 -22 3 -41z m1397 -97 c12 -4 22 -15 22 -24 1 -22 17 -42 59
-71 l33 -24 -3 -86 c-4 -81 -3 -86 16 -86 18 0 20 6 19 57 -1 32 3 55 7 52 10
-6 12 -88 3 -119 -3 -11 -20 -27 -37 -35 -19 -9 -31 -22 -31 -32 1 -10 -2 -18
-7 -18 -5 0 -9 -7 -9 -15 0 -9 -6 -12 -15 -9 -10 4 -15 0 -15 -15 0 -25 6 -26
27 -6 8 9 18 13 22 10 3 -4 -2 -11 -11 -16 -9 -5 -29 -36 -44 -69 -15 -33 -33
-65 -40 -71 -8 -6 -14 -20 -14 -30 0 -13 -7 -19 -22 -18 -25 0 -70 17 -51 18
15 1 43 29 43 43 0 6 -12 7 -31 3 -23 -5 -34 -3 -44 12 -13 17 -14 17 -21 -1
-5 -14 -1 -25 17 -39 17 -15 19 -18 6 -14 -10 4 -23 7 -28 7 -5 0 -9 9 -9 21
0 15 -5 19 -16 15 -10 -4 -26 6 -45 26 -16 18 -29 27 -29 20 0 -6 -9 -12 -20
-12 -11 0 -20 -4 -20 -10 0 -21 -20 -9 -26 15 -8 31 3 78 16 70 5 -3 7 0 5 8
-3 7 5 19 20 27 14 8 23 20 21 27 -3 7 1 13 10 13 8 0 12 5 9 11 -4 6 -13 8
-21 5 -11 -4 -13 1 -8 19 8 31 1 32 -26 3 -23 -25 -27 -13 -6 17 7 11 16 48
19 83 3 34 12 74 21 87 9 13 16 30 16 37 0 18 104 118 121 117 10 0 11 -2 2
-6 -18 -7 -16 -23 2 -23 8 0 15 9 15 19 0 16 6 19 38 17 21 -2 48 -6 60 -10z
m238 -215 c6 -35 4 -43 -7 -39 -9 3 -15 21 -15 52 -2 57 12 49 22 -13z m4 -61
c0 -5 -4 -10 -10 -10 -5 0 -10 5 -10 10 0 6 5 10 10 10 6 0 10 -4 10 -10z
m-38 -32 c-7 -7 -12 -8 -12 -2 0 14 12 26 19 19 2 -3 -1 -11 -7 -17z"/>
<path d="M3775 6965 c-188 -28 -342 -74 -486 -145 -103 -51 -191 -108 -184
-120 3 -5 0 -8 -7 -5 -16 6 -104 -68 -174 -146 -102 -112 -155 -208 -189 -341
l-22 -89 -64 -38 c-104 -61 -209 -136 -310 -220 -177 -148 -284 -302 -349
-504 -34 -104 -36 -117 -15 -117 9 0 15 -9 15 -21 0 -18 -2 -19 -15 -9 -9 7
-19 10 -23 6 -4 -4 -9 -51 -11 -103 -2 -73 0 -94 9 -88 17 10 30 -13 30 -53 0
-33 21 -67 34 -55 11 11 7 24 -5 17 -7 -4 -10 -1 -7 7 3 8 14 13 24 12 10 -1
13 0 7 3 -18 8 -16 27 1 21 8 -3 17 1 20 9 4 11 10 12 25 5 14 -8 21 -7 24 2
5 11 11 -18 8 -37 -1 -4 4 -15 10 -23 18 -21 29 3 18 41 -5 17 -9 59 -9 93 l0
63 -31 -7 c-29 -5 -31 -4 -24 15 5 17 3 21 -9 16 -9 -3 -16 -1 -16 6 0 6 -3 9
-7 7 -5 -3 -8 10 -9 29 0 22 4 34 13 34 7 0 18 11 23 25 14 38 43 22 35 -19
l-7 -31 30 31 c18 19 32 46 37 72 4 23 10 42 15 42 4 0 11 16 14 35 4 19 11
35 16 35 6 0 10 7 10 15 0 18 12 35 58 80 17 17 32 36 32 42 0 13 93 108 185
190 76 67 192 168 213 184 7 6 38 14 69 19 35 6 60 16 69 28 21 30 179 92 235
92 15 0 31 5 34 10 4 6 10 8 15 5 5 -3 11 -1 14 3 3 5 40 15 83 22 43 7 83 17
90 22 6 5 20 8 30 7 10 -1 25 1 33 4 52 21 388 41 408 25 16 -14 15 -48 -3
-72 -12 -16 -35 -20 -152 -27 -236 -15 -376 -29 -389 -40 -7 -6 -18 -8 -24 -4
-6 4 -16 3 -23 -2 -7 -6 -38 -16 -70 -23 -32 -7 -60 -17 -63 -22 -3 -4 -11 -8
-19 -8 -8 0 -26 -5 -42 -11 -15 -6 -30 -10 -32 -9 -2 1 -7 -2 -10 -7 -3 -4
-31 -21 -61 -36 -30 -15 -74 -38 -97 -51 -23 -13 -44 -21 -47 -18 -4 3 -6 0
-6 -6 0 -6 -13 -13 -30 -17 -16 -4 -30 -10 -30 -15 0 -4 -12 -11 -27 -15 -15
-3 -43 -19 -62 -34 -20 -15 -43 -30 -52 -34 -9 -3 -30 -23 -45 -44 -16 -21
-32 -39 -36 -41 -5 -2 -8 -9 -8 -16 0 -7 -9 -21 -20 -31 -11 -10 -20 -22 -20
-27 0 -6 -19 -35 -43 -66 -24 -32 -52 -73 -62 -92 -11 -19 -23 -38 -28 -41
-17 -12 -48 -86 -51 -121 -3 -32 0 -37 23 -41 31 -6 49 2 30 14 -7 4 -10 11
-6 15 4 4 18 -5 32 -20 27 -30 30 -36 15 -36 -5 0 -10 7 -10 16 0 27 -23 10
-35 -27 -11 -31 -15 -34 -49 -31 -34 3 -36 1 -36 -26 0 -15 -5 -33 -11 -39
-11 -11 -9 -47 11 -183 6 -41 15 -79 20 -84 6 -6 10 -18 10 -27 0 -79 176
-285 330 -385 100 -65 128 -77 148 -63 14 8 12 9 -8 3 -24 -6 -24 -5 -6 9 22
16 55 11 63 -10 3 -8 0 -19 -8 -24 -12 -8 -11 -12 5 -24 11 -8 25 -15 32 -15
13 0 64 56 64 71 0 13 37 11 46 -3 4 -7 3 -8 -4 -4 -7 4 -12 1 -12 -8 0 -9 6
-13 14 -10 12 4 16 -6 19 -48 3 -51 3 -51 4 12 1 63 0 66 -37 98 -39 33 -77
36 -65 4 3 -9 3 -13 -1 -9 -4 4 -9 29 -10 57 -3 59 -13 80 -26 56 -11 -20 -30
-12 -21 9 3 8 0 15 -6 15 -6 0 -8 7 -5 15 4 8 12 15 20 15 10 0 12 9 8 33 -10
56 -16 65 -25 37 -7 -19 -7 -16 -3 13 3 21 1 37 -5 37 -5 0 -11 -14 -13 -31
-2 -20 -12 -38 -26 -47 -19 -12 -23 -13 -20 -1 2 9 -4 13 -19 11 -17 -2 -21 1
-17 12 3 8 -3 23 -15 33 -12 9 -21 22 -21 28 0 5 4 4 9 -3 4 -8 11 43 15 120
4 73 11 137 16 142 6 6 10 24 10 41 0 17 4 35 9 41 11 11 33 125 26 132 -3 3
3 11 13 18 16 12 15 13 -5 14 -12 0 -25 -5 -29 -11 -3 -6 -15 -9 -25 -6 -11 3
-19 1 -19 -4 0 -5 -9 -9 -21 -9 -47 0 14 67 63 69 9 1 18 4 20 9 5 11 76 42
98 42 22 0 37 -19 22 -29 -19 -12 -80 -140 -87 -184 -4 -23 -11 -46 -15 -52
-4 -5 -11 -41 -15 -80 -4 -38 -11 -75 -16 -80 -4 -6 -11 -46 -15 -89 -6 -64
-5 -78 6 -71 10 6 12 4 7 -8 -3 -10 -2 -17 3 -17 6 0 10 6 10 13 0 6 7 26 16
42 18 33 28 98 13 89 -5 -3 -9 -1 -9 5 0 5 -8 12 -17 14 -14 4 -14 5 3 6 28 1
46 -21 38 -45 -7 -18 -6 -18 13 1 14 14 17 23 9 28 -7 6 -4 7 7 3 10 -3 23 -6
28 -6 5 0 9 -29 9 -65 0 -64 0 -65 20 -48 11 10 20 23 20 31 0 7 5 10 10 7 6
-3 10 -1 10 4 0 6 5 11 10 11 6 0 9 -3 8 -7 -1 -5 10 -21 24 -37 15 -15 27
-31 26 -35 -1 -3 4 -19 10 -34 10 -24 14 -26 33 -17 19 10 20 9 15 -8 -4 -11
-2 -23 4 -27 6 -4 10 6 10 24 0 16 -4 33 -10 36 -5 3 -10 1 -10 -4 0 -6 -4
-11 -10 -11 -5 0 -10 7 -10 15 0 8 -4 15 -9 15 -12 0 -22 83 -10 94 12 13 12
79 0 71 -6 -3 -15 4 -21 16 -8 15 -9 19 -1 15 10 -6 16 50 14 112 -1 9 6 12
18 9 15 -4 19 0 18 16 -4 43 1 71 10 61 5 -5 11 -18 14 -29 3 -14 5 -12 7 10
l2 30 13 -30 14 -30 1 28 c0 15 4 27 8 27 4 0 9 8 10 18 3 31 9 57 21 85 6 16
11 35 11 43 0 9 11 14 33 14 17 0 27 4 21 8 -7 4 -8 15 -3 27 7 19 8 19 8 -1
1 -21 41 -43 41 -23 0 5 -4 9 -10 9 -15 0 -12 34 5 66 22 43 17 65 -5 24 -23
-42 -26 -36 -5 13 11 27 19 35 32 30 13 -5 15 -2 10 17 -7 27 8 50 32 49 11 0
10 -3 -6 -11 -13 -6 -23 -15 -23 -20 0 -5 9 -4 19 2 16 8 23 5 40 -16 12 -15
21 -32 21 -39 0 -7 7 -18 15 -25 9 -7 14 -19 11 -26 -3 -7 -1 -16 4 -19 6 -4
10 3 10 15 0 24 26 55 34 41 7 -10 -3 -43 -15 -51 -13 -9 -22 -150 -10 -150
10 0 14 30 14 93 0 9 4 17 8 17 5 0 9 5 9 11 0 5 -4 7 -10 4 -5 -3 -10 -2 -10
4 0 6 10 16 22 22 13 7 18 14 11 16 -7 3 -9 11 -6 19 3 8 0 21 -7 29 -18 22
-4 31 16 11 9 -9 19 -14 23 -11 3 4 -6 17 -21 30 -16 13 -28 29 -28 35 0 11
36 50 46 50 13 0 43 42 38 54 -3 7 2 13 11 13 8 0 15 -5 15 -11 0 -6 10 9 23
34 12 25 26 48 31 51 4 4 5 22 2 40 -4 25 -4 29 3 14 9 -18 10 -17 11 10 2 17
2 37 1 45 -2 13 -1 13 8 0 5 -8 11 -12 13 -10 19 30 38 71 38 83 0 8 12 22 26
32 21 14 24 19 13 27 -12 7 -11 9 1 7 28 -3 41 1 36 10 -9 13 36 22 51 9 7 -5
10 -14 7 -19 -9 -16 7 -33 17 -18 6 9 7 2 3 -18 -4 -18 -3 -74 1 -126 6 -82 9
-93 26 -93 11 0 22 11 29 29 5 16 14 26 19 23 5 -4 14 6 19 21 10 26 10 25 11
-17 1 -34 -2 -41 -10 -30 -8 11 -9 5 -5 -25 3 -22 7 -58 8 -80 1 -30 3 -24 8
25 l7 65 1 -71 c2 -74 16 -130 39 -152 11 -11 13 -10 13 7 0 11 -5 23 -11 27
-13 8 -6 254 7 276 10 15 10 19 13 73 2 38 2 39 17 20 8 -11 22 -29 31 -40 10
-11 25 -36 35 -55 13 -25 18 -29 18 -15 1 19 1 19 11 2 13 -22 29 -13 30 16 1
16 3 17 6 5 6 -23 -15 -60 -29 -52 -8 5 -9 1 -5 -10 4 -10 10 -29 13 -42 3
-13 10 -24 14 -24 4 0 10 -15 14 -32 5 -24 9 -29 15 -19 11 18 -13 87 -29 83
-6 -1 -10 5 -8 13 2 12 22 17 91 21 80 4 87 3 87 -14 0 -16 7 -18 43 -16 110
7 176 5 195 -7 18 -12 23 -11 34 3 14 18 55 18 51 0 -2 -6 4 -9 12 -6 8 4 15
2 15 -4 0 -5 -6 -12 -14 -15 -8 -3 -14 -15 -13 -26 1 -15 5 -17 18 -10 23 12
32 11 24 -1 -3 -6 1 -7 9 -4 10 4 18 -1 23 -12 6 -16 7 -16 12 -1 5 13 16 4
51 -38 24 -29 48 -51 52 -48 5 2 -9 23 -32 45 -22 22 -40 44 -40 49 0 4 -8 10
-17 14 -10 3 -40 26 -66 50 -51 47 -65 53 -85 33 -9 -9 -12 -9 -12 0 0 7 5 12
10 12 17 0 11 20 -7 27 -10 4 -20 10 -23 13 -3 4 -15 10 -28 14 -15 5 -24 3
-28 -8 -3 -9 -10 -16 -15 -16 -14 0 -11 28 4 33 6 2 8 8 4 13 -5 5 -15 0 -23
-11 -14 -19 -15 -18 -8 10 5 25 4 28 -7 18 -7 -7 -18 -13 -23 -13 -6 0 -4 4 4
10 8 5 11 12 7 16 -3 4 -14 1 -23 -7 -15 -12 -16 -11 -9 10 4 14 3 21 -2 18
-10 -6 -110 40 -138 63 -8 7 -15 23 -15 36 0 21 4 24 29 19 22 -4 33 0 40 12
10 17 10 17 11 0 0 -24 27 -50 41 -41 8 5 9 3 4 -6 -6 -10 -3 -12 13 -8 12 4
20 2 16 -3 -3 -5 8 -14 23 -21 15 -7 31 -17 34 -22 4 -5 11 -6 17 -2 6 3 17
-1 26 -10 9 -8 22 -12 28 -8 7 4 10 4 6 -1 -4 -4 13 -21 38 -38 25 -16 48 -36
51 -42 2 -8 14 -11 26 -7 12 3 19 1 14 -3 -9 -10 31 -55 50 -55 7 0 13 -4 13
-10 0 -5 7 -10 16 -10 8 0 12 -4 9 -10 -3 -5 0 -10 7 -11 7 0 27 -2 43 -2 26
-2 30 -6 31 -32 1 -66 40 -78 42 -14 1 24 -2 38 -8 34 -6 -3 -10 -2 -10 4 0 5
5 13 10 16 6 3 10 2 10 -3 0 -6 8 -9 18 -7 9 1 11 0 5 -2 -7 -3 -13 -8 -13
-13 0 -11 59 -10 66 2 3 4 10 6 15 3 5 -4 9 4 10 17 0 13 3 17 6 11 5 -15 49
-17 58 -4 5 10 190 5 206 -5 20 -12 7 -24 -27 -24 -47 0 -68 -21 -59 -60 4
-17 11 -30 16 -30 5 0 9 -5 9 -11 0 -8 -5 -8 -15 1 -8 7 -15 17 -15 22 0 11
-61 71 -66 65 -3 -2 2 -10 11 -17 8 -7 15 -24 15 -39 0 -20 2 -23 10 -11 6 9
10 10 10 3 0 -6 -5 -15 -12 -19 -19 -12 -58 -14 -58 -3 0 5 9 9 20 9 11 0 20
5 20 10 0 6 -9 10 -19 10 -11 0 -26 7 -35 15 -8 8 -19 15 -25 15 -6 0 -11 4
-11 8 0 5 -7 9 -15 9 -8 0 -15 -7 -15 -14 0 -8 4 -12 9 -9 5 3 8 -2 7 -11 0
-9 5 -18 12 -20 8 -3 10 1 6 14 -7 17 -6 17 12 -1 14 -13 15 -20 7 -23 -7 -3
-13 -11 -13 -19 0 -10 12 -14 40 -14 l40 0 0 -80 0 -80 80 0 80 0 0 -80 c0
-73 -2 -80 -20 -80 -17 0 -20 -7 -20 -39 0 -23 -5 -41 -12 -44 -7 -2 -1 -3 15
-1 21 3 27 -1 27 -16 0 -10 4 -21 9 -24 4 -3 6 24 4 60 l-5 65 63 -2 c100 -2
102 -4 94 -55 -4 -29 -2 -44 4 -44 6 0 11 -12 11 -26 0 -20 -4 -25 -16 -20
-10 4 -14 2 -10 -6 3 -7 9 -21 12 -30 5 -13 17 -18 45 -18 32 0 39 -3 39 -20
0 -29 -68 -28 -93 1 -12 13 -24 18 -37 14 -12 -4 -20 -2 -20 4 0 6 6 11 14 11
11 0 10 8 -5 40 -10 21 -19 43 -19 49 0 5 -4 13 -10 16 -6 4 -7 -6 -4 -25 4
-16 3 -30 -2 -30 -13 0 -36 39 -29 50 3 6 -1 7 -9 4 -8 -3 -14 -16 -13 -29 2
-29 -14 -34 -28 -9 -11 21 -45 31 -45 14 0 -5 5 -10 11 -10 6 0 9 -7 5 -15 -7
-18 3 -45 16 -45 5 0 7 10 4 23 -3 12 -3 16 0 10 3 -7 19 -13 35 -13 23 0 27
3 22 18 -6 16 -5 16 13 0 16 -14 23 -15 32 -6 9 9 11 1 7 -35 l-6 -47 33 6
c25 4 29 3 18 -5 -12 -9 -11 -11 8 -11 12 0 22 -6 22 -14 0 -9 -10 -13 -30
-11 -33 3 -55 -17 -46 -40 4 -12 23 -15 80 -15 72 0 76 -1 82 -25 3 -14 4 -36
2 -50 -3 -13 -1 -22 3 -19 5 3 9 1 9 -5 0 -5 -5 -13 -10 -16 -6 -4 -7 -11 -4
-17 4 -7 10 -4 16 6 5 9 13 14 19 11 5 -4 9 3 9 14 0 10 4 21 8 23 5 2 12 18
15 36 4 21 3 31 -3 27 -17 -10 -11 5 10 27 21 23 26 53 10 63 -5 3 -10 12 -10
18 0 8 3 8 9 -1 12 -19 24 98 15 153 -3 25 -10 45 -16 45 -5 0 -8 6 -6 13 3
15 -33 97 -43 97 -3 0 -12 20 -19 45 -7 24 -17 42 -22 39 -5 -3 -8 0 -7 7 3
17 -3 32 -57 147 -38 80 -47 91 -62 83 -14 -8 -18 -5 -19 12 -2 17 0 18 7 7 5
-8 12 -11 16 -7 5 4 -2 17 -14 30 -13 13 -22 16 -22 9 0 -7 -5 -10 -11 -6 -8
4 -7 9 2 15 11 8 10 12 -5 24 -10 8 -23 12 -27 9 -5 -3 -6 1 -3 9 6 16 -23 44
-33 33 -4 -4 -1 -11 6 -15 9 -6 10 -11 2 -15 -7 -5 -14 4 -18 24 -3 18 -13 34
-22 38 -9 3 -19 10 -22 15 -3 4 -14 0 -24 -9 -17 -17 -17 -17 -11 3 5 16 1 22
-16 28 -13 4 -29 6 -35 6 -7 -1 -13 3 -13 8 0 6 -7 8 -15 5 -9 -4 -15 0 -15
10 0 18 -15 22 -25 6 -4 -6 -11 -7 -17 -4 -6 4 -5 10 3 15 10 6 8 9 -8 9 -25
0 -31 15 -10 23 10 4 10 6 0 6 -15 1 -18 31 -3 31 6 0 10 7 10 15 0 15 45 22
52 8 3 -9 106 -73 115 -73 3 0 0 7 -7 15 -7 8 -8 15 -2 15 5 0 15 -7 22 -15 7
-8 9 -15 5 -15 -4 0 -2 -7 5 -15 7 -9 19 -14 26 -11 8 3 11 0 7 -10 -3 -10 0
-12 10 -9 8 4 17 -1 20 -9 4 -9 12 -16 18 -16 9 0 9 3 0 14 -9 10 -8 15 2 19
9 3 13 -2 11 -16 -2 -29 76 -112 89 -94 5 7 6 2 3 -15 -4 -16 -2 -28 4 -28 5
0 13 -12 16 -26 5 -19 9 -22 15 -12 7 10 9 8 9 -7 0 -11 10 -25 22 -30 24 -11
36 -35 18 -35 -6 0 -9 4 -6 9 3 5 0 11 -8 14 -11 5 -12 -1 -3 -29 6 -19 14
-34 18 -34 4 0 15 -22 25 -50 18 -50 27 -59 39 -40 9 15 25 2 19 -15 -4 -8
-11 -12 -16 -9 -12 8 -12 8 26 -73 16 -34 34 -59 39 -56 6 4 8 -1 4 -11 -4
-10 -4 -23 -1 -28 12 -18 16 -78 16 -198 0 -90 -5 -131 -22 -190 -13 -41 -22
-88 -22 -105 0 -23 -1 -26 -7 -11 -6 16 -11 12 -34 -27 -30 -51 -34 -69 -12
-61 10 4 15 0 15 -12 0 -11 -3 -15 -8 -9 -11 17 -40 12 -56 -10 -15 -20 -22
-45 -9 -32 3 4 13 1 21 -6 9 -6 13 -7 9 -1 -3 6 9 18 28 27 19 9 35 13 36 9 1
-8 5 -28 10 -52 2 -8 -2 -14 -9 -12 -8 1 -11 -2 -7 -8 3 -5 2 -10 -4 -10 -5 0
-13 5 -16 11 -4 5 -12 8 -18 6 -7 -2 -20 0 -31 5 -14 8 -12 2 9 -26 15 -20 31
-36 36 -36 9 0 53 56 55 71 1 5 2 14 3 20 0 5 6 7 13 3 7 -4 8 -3 4 5 -4 6
-11 9 -16 6 -12 -7 -23 12 -15 26 5 7 13 5 25 -6 16 -14 18 -14 30 0 11 13 11
16 0 13 -8 -2 -16 5 -18 15 -4 18 17 20 29 4 14 -19 70 143 78 225 10 105 12
355 2 283 l-7 -50 -5 45 c-2 25 0 62 5 82 11 42 -9 119 -50 198 -13 25 -57
108 -97 185 -58 110 -77 140 -93 140 -12 0 -27 5 -35 12 -8 6 -17 12 -21 12
-14 2 -9 15 7 17 8 1 13 -1 10 -6 -6 -10 23 -35 32 -26 10 9 -58 76 -70 69 -6
-3 -7 -1 -4 4 9 15 -38 44 -60 37 -13 -4 -14 -3 -5 4 10 7 4 17 -28 42 -22 18
-44 29 -48 26 -3 -4 -1 -11 7 -15 10 -7 10 -9 -2 -14 -11 -4 -14 1 -12 21 6
56 -50 276 -67 266 -7 -5 -9 1 -5 16 7 26 -4 51 -39 93 -13 16 -24 34 -24 40
1 7 8 0 16 -15 24 -45 26 -32 2 17 -16 32 -25 41 -31 32 -6 -8 -7 -6 -3 6 14
43 -114 228 -236 342 -93 86 -185 151 -162 113 4 -7 3 -8 -5 -4 -6 4 -9 11 -6
16 12 20 -205 118 -320 145 -194 46 -375 55 -550 30z m385 -156 c0 -5 24 -9
54 -9 30 0 58 -4 61 -10 3 -5 19 -10 35 -10 16 0 32 -5 35 -10 4 -6 12 -10 18
-9 12 2 31 -4 82 -26 17 -8 32 -13 35 -12 3 1 19 -8 36 -20 17 -13 43 -27 58
-33 14 -5 26 -13 26 -18 0 -5 10 -14 23 -19 12 -6 51 -36 87 -66 35 -31 68
-53 72 -51 4 3 5 -1 3 -8 -3 -8 19 -37 50 -67 30 -29 55 -59 55 -67 0 -8 5
-14 10 -14 6 0 10 -15 10 -34 0 -25 -7 -40 -25 -54 -14 -11 -25 -27 -25 -36 0
-9 -4 -16 -10 -16 -16 0 -11 -76 8 -114 9 -19 23 -34 31 -33 8 1 16 -5 18 -13
4 -13 3 -13 -6 0 -16 23 -12 -2 5 -30 11 -19 14 -20 10 -5 -3 11 -2 26 3 34 7
11 11 10 19 -4 8 -16 10 -14 10 8 0 15 -4 27 -8 27 -4 0 -10 17 -14 39 -3 21
-13 44 -21 51 -15 12 -21 61 -9 73 4 3 15 0 25 -7 19 -13 69 -81 69 -94 0 -4
7 -20 15 -36 8 -15 13 -32 10 -36 -3 -5 -1 -11 5 -15 5 -3 10 -18 10 -33 0
-16 8 -34 20 -42 11 -8 20 -20 20 -27 0 -7 7 -13 15 -13 8 0 15 -5 15 -11 0
-5 -4 -7 -10 -4 -13 8 -1 -85 14 -105 7 -10 3 -9 -10 3 -11 9 -28 17 -38 17
-10 0 -19 11 -22 30 -5 23 -12 30 -29 30 -16 0 -26 8 -33 28 -6 15 -11 21 -11
15 -1 -21 -24 -15 -68 17 -22 16 -43 27 -47 23 -3 -3 -6 -1 -6 6 0 8 -8 11
-20 8 -11 -3 -18 -1 -14 4 3 5 -12 17 -33 26 -21 10 -40 21 -41 26 -2 4 -8 5
-13 1 -5 -3 -12 2 -15 10 -3 9 -11 13 -16 10 -6 -4 -14 -1 -18 5 -4 7 -23 13
-42 14 -24 1 -34 6 -31 15 3 7 -3 12 -15 12 -12 0 -24 5 -27 10 -3 6 -15 10
-26 10 -10 0 -19 5 -19 10 0 6 -6 10 -12 9 -24 -4 -98 13 -98 22 0 5 -15 9
-34 9 -19 0 -38 5 -41 11 -4 6 -19 9 -33 8 -15 -1 -34 1 -42 4 -22 9 -91 16
-235 26 -71 5 -142 14 -157 20 -33 13 -37 -1 -5 -18 16 -8 16 -10 2 -5 -41 15
-268 26 -275 14 -4 -6 -22 -10 -41 -10 -54 2 -149 -12 -149 -22 0 -4 -11 -6
-24 -2 -14 3 -31 2 -38 -2 -7 -5 -23 -7 -35 -5 -13 1 -23 -3 -23 -9 0 -6 -6
-10 -12 -9 -13 2 -41 -6 -68 -20 -8 -5 -30 -6 -49 -3 -31 4 -33 6 -27 41 4 26
3 31 -4 16 -5 -11 -9 -28 -9 -37 -1 -30 -39 -63 -104 -94 -34 -16 -64 -32 -67
-35 -12 -14 -43 -4 -57 18 -12 18 -13 27 -4 36 6 6 11 21 11 34 0 13 4 23 8
23 5 0 14 23 21 50 7 28 17 50 22 50 5 0 9 6 9 14 0 8 3 16 8 18 4 2 22 26 41
53 39 56 179 195 198 195 7 0 16 6 20 13 4 6 35 25 68 42 33 16 63 34 67 39 3
5 17 11 29 13 13 2 26 7 29 11 9 12 73 40 120 53 25 7 50 16 55 20 6 5 31 11
55 15 25 4 50 11 56 16 6 4 60 13 120 19 60 6 120 13 133 17 35 10 221 2 221
-9z m654 -235 c3 -8 2 -12 -4 -9 -6 3 -10 10 -10 16 0 14 7 11 14 -7z m-29
-24 c3 -6 -1 -7 -9 -4 -18 7 -21 14 -7 14 6 0 13 -4 16 -10z m216 -137 c13
-16 12 -17 -3 -4 -10 7 -18 15 -18 17 0 8 8 3 21 -13z m123 -229 c9 -22 8 -24
-9 -18 -8 4 -15 12 -15 20 0 19 16 18 24 -2z m-784 2 c0 -2 -7 -7 -16 -10 -8
-3 -12 -2 -9 4 6 10 25 14 25 6z m-226 -15 c3 -5 29 -11 58 -15 29 -3 80 -10
113 -16 33 -5 74 -11 92 -13 17 -2 37 -8 45 -14 7 -6 33 -10 58 -8 25 1 39 0
33 -2 -7 -3 -13 -9 -13 -15 0 -12 40 0 63 20 9 8 17 10 17 5 0 -6 -7 -14 -16
-17 -23 -9 -7 -26 25 -26 16 0 40 -11 56 -26 15 -14 33 -23 40 -21 8 4 10 -3
7 -19 -4 -21 -10 -24 -53 -24 -27 0 -49 4 -49 8 0 11 -107 32 -125 25 -9 -3
-21 -1 -28 5 -17 14 -161 32 -447 54 l-165 13 -3 33 c-6 62 -6 62 147 62 77 0
142 -4 145 -9z m353 -47 c-3 -3 -12 -4 -19 -1 -8 3 -5 6 6 6 11 1 17 -2 13 -5z
m83 2 c0 -3 -4 -8 -10 -11 -5 -3 -10 -1 -10 4 0 6 5 11 10 11 6 0 10 -2 10 -4z
m619 -96 c0 -9 -4 -8 -9 5 -5 11 -9 27 -9 35 0 9 4 8 9 -5 5 -11 9 -27 9 -35z
m-485 24 c3 -8 2 -12 -4 -9 -6 3 -10 10 -10 16 0 14 7 11 14 -7z m-1051 -1
c-7 -2 -19 -2 -25 0 -7 3 -2 5 12 5 14 0 19 -2 13 -5z m-98 -13 c13 -6 5 -7
-25 -3 -25 3 -47 7 -49 9 -9 8 55 2 74 -6z m592 4 c-3 -3 -12 -4 -19 -1 -8 3
-5 6 6 6 11 1 17 -2 13 -5z m-770 -10 c-3 -3 -12 -4 -19 -1 -8 3 -5 6 6 6 11
1 17 -2 13 -5z m1044 -37 c-10 -9 -11 -8 -5 6 3 10 9 15 12 12 3 -3 0 -11 -7
-18z m399 -5 c19 -9 37 -17 40 -17 24 -6 63 -28 80 -45 11 -11 25 -18 30 -15
5 3 12 0 16 -6 4 -8 3 -9 -4 -5 -7 4 -12 1 -12 -9 0 -9 5 -13 10 -10 6 4 1
-10 -10 -31 -17 -29 -19 -39 -8 -45 9 -6 9 -9 1 -9 -6 0 -18 7 -27 15 -8 8
-18 15 -22 15 -4 0 -16 8 -26 17 -11 10 -31 18 -46 19 -14 0 -28 7 -30 15 -3
11 -1 11 7 -1 8 -11 11 -11 11 -2 0 7 -8 16 -17 19 -34 13 -73 58 -73 84 0 43
8 44 80 11z m-467 1 c-7 -2 -19 -2 -25 0 -7 3 -2 5 12 5 14 0 19 -2 13 -5z
m814 -25 c-3 -7 -5 -2 -5 12 0 14 2 19 5 13 2 -7 2 -19 0 -25z m-1541 -4 c-3
-8 -2 -13 2 -11 10 6 251 -10 342 -23 41 -6 84 -12 96 -13 15 -1 19 -7 16 -21
-5 -17 -13 -18 -146 -12 -78 4 -175 7 -216 7 -53 1 -80 6 -92 17 -18 15 -24
53 -11 65 11 12 15 8 9 -9z m738 -8 c8 -14 8 -20 -2 -23 -7 -3 -19 -11 -26
-19 -17 -16 -46 -19 -46 -4 0 6 -5 10 -12 10 -17 0 -48 31 -48 47 0 23 120 13
134 -11z m-467 8 c-3 -3 -12 -4 -19 -1 -8 3 -5 6 6 6 11 1 17 -2 13 -5z m774
-25 c-5 -13 -10 -19 -10 -12 -1 7 -8 10 -16 7 -24 -10 -17 10 8 22 28 13 29
12 18 -17z m-510 -72 c-8 -8 -15 -6 -26 9 -28 35 -37 54 -25 54 5 0 10 8 10
18 0 10 11 -1 26 -26 19 -32 23 -47 15 -55z m549 83 c0 -5 -5 -10 -11 -10 -5
0 -7 5 -4 10 3 6 8 10 11 10 2 0 4 -4 4 -10z m-516 -7 c4 -4 15 -8 24 -8 9 0
18 -9 20 -19 3 -13 0 -17 -11 -13 -8 3 -20 0 -26 -6 -8 -8 -11 -8 -11 2 0 7
-4 10 -8 7 -4 -2 -9 6 -10 20 -2 24 8 31 22 17z m413 -19 c-3 -3 -12 -4 -19
-1 -8 3 -5 6 6 6 11 1 17 -2 13 -5z m147 -24 c-6 -6 -10 -3 -10 10 0 13 4 16
10 10 7 -7 7 -13 0 -20z m-1189 1 c10 -17 -35 -48 -90 -61 -30 -7 -55 -17 -55
-23 0 -5 -7 -7 -15 -3 -8 3 -15 1 -15 -4 0 -6 -7 -10 -15 -10 -8 0 -15 -4 -15
-10 0 -5 -7 -7 -15 -4 -8 4 -15 2 -15 -4 0 -5 -12 -13 -26 -16 -15 -4 -41 -18
-59 -31 -17 -14 -35 -22 -38 -18 -4 3 -7 1 -7 -5 0 -6 -9 -14 -20 -17 -11 -4
-35 -22 -54 -41 -18 -19 -37 -34 -43 -34 -5 0 -22 -14 -39 -31 -16 -17 -37
-34 -46 -38 -15 -5 -61 -49 -236 -223 -26 -26 -52 -48 -58 -48 -7 0 -14 -7
-18 -15 -3 -8 -10 -15 -16 -15 -27 0 -2 36 90 128 55 55 100 105 100 111 0 6
11 18 26 27 16 11 22 20 15 27 -5 5 -8 15 -7 21 2 6 1 8 -1 3 -7 -12 -23 3
-23 22 0 16 48 71 63 71 4 0 7 -11 7 -25 0 -14 4 -25 9 -25 5 0 7 -10 3 -22
-5 -23 -5 -23 17 -4 16 15 19 22 9 29 -10 6 -10 8 1 5 13 -4 115 63 164 107
10 8 33 23 52 32 19 9 35 22 35 30 0 7 6 10 15 7 8 -4 15 -1 15 5 0 6 7 8 16
4 13 -5 15 -1 10 18 -6 20 -5 21 4 7 13 -21 30 -24 30 -5 0 6 12 13 26 14 15
0 29 6 33 11 3 6 20 14 36 18 17 4 35 11 42 16 7 5 17 7 23 3 5 -3 10 -1 10 6
0 7 10 9 25 7 14 -3 25 -1 25 3 0 12 17 11 25 0z m45 5 c0 -3 -4 -8 -10 -11
-5 -3 -10 -1 -10 4 0 6 5 11 10 11 6 0 10 -2 10 -4z m730 -28 c0 -9 -23 -16
-37 -10 -21 7 -14 17 12 17 14 0 25 -3 25 -7z m-1186 -36 c-6 -4 -14 -16 -18
-27 -6 -18 -5 -17 17 3 21 20 25 21 30 8 4 -9 2 -16 -3 -16 -6 0 -10 -7 -10
-15 0 -8 -9 -23 -19 -32 -11 -9 -18 -20 -15 -25 3 -4 -2 -5 -10 -2 -9 3 -16 1
-16 -5 0 -6 -7 -11 -16 -11 -10 0 -14 -6 -10 -15 7 -18 4 -18 -29 -3 -14 6
-25 17 -25 25 0 7 -5 13 -11 13 -17 0 -39 27 -39 47 0 22 47 49 108 62 24 5
46 12 50 15 3 4 10 2 16 -4 8 -8 8 -13 0 -18z m1711 0 c-3 -3 -11 0 -18 7 -9
10 -8 11 6 5 10 -3 15 -9 12 -12z m350 -23 c11 -17 -1 -21 -15 -4 -8 9 -8 15
-2 15 6 0 14 -5 17 -11z m-1005 -18 c0 -5 -7 -11 -14 -14 -10 -4 -13 -1 -9 9
6 15 23 19 23 5z m530 5 c0 -2 -7 -6 -15 -10 -8 -3 -15 -1 -15 4 0 6 7 10 15
10 8 0 15 -2 15 -4z m215 -26 c3 -6 -1 -7 -9 -4 -18 7 -21 14 -7 14 6 0 13 -4
16 -10z m-195 -19 c0 -11 5 -21 11 -23 6 -2 8 -14 4 -31 -10 -37 -57 -38 -81
-2 -20 31 -11 49 18 34 15 -8 19 -8 13 0 -10 17 2 41 20 41 8 0 15 -9 15 -19z
m-70 5 c0 -3 -4 -8 -10 -11 -5 -3 -10 -1 -10 4 0 6 5 11 10 11 6 0 10 -2 10
-4z m-1090 -10 c0 -3 -4 -8 -10 -11 -5 -3 -10 -1 -10 4 0 6 5 11 10 11 6 0 10
-2 10 -4z m1197 -2 c-3 -3 -12 -4 -19 -1 -8 3 -5 6 6 6 11 1 17 -2 13 -5z
m-221 -23 c0 -11 -5 -17 -13 -14 -17 6 -17 20 0 26 6 3 12 6 12 6 1 1 1 -7 1
-18z m-1129 -23 c-3 -7 -5 -2 -5 12 0 14 2 19 5 13 2 -7 2 -19 0 -25z m1553
28 c0 -3 -4 -8 -10 -11 -5 -3 -10 -1 -10 4 0 6 5 11 10 11 6 0 10 -2 10 -4z
m-181 -51 c0 -5 -4 -3 -9 5 -5 8 -9 22 -9 30 0 16 17 -16 18 -35z m-1440 -166
c-7 -4 -9 -13 -6 -21 3 -8 1 -21 -5 -29 -8 -11 -9 -10 -4 4 4 12 2 17 -6 15
-20 -7 -20 -26 -1 -32 15 -5 17 -15 14 -63 -2 -32 -9 -63 -18 -71 -7 -8 -15
-13 -17 -11 -10 14 -36 80 -36 93 0 8 -8 20 -17 25 -10 6 -13 11 -7 11 5 0 15
-5 21 -11 8 -8 14 -6 22 9 10 19 9 20 -22 15 l-33 -5 0 51 c0 28 3 46 7 39 10
-15 40 58 32 78 -3 9 -1 14 6 12 7 -2 22 15 34 37 37 67 42 62 45 -42 2 -66
-1 -99 -9 -104z m1711 191 c-8 -5 -23 -10 -32 -10 -10 0 -18 -4 -18 -10 0 -5
-5 -10 -11 -10 -19 0 10 28 34 33 38 7 42 7 27 -3z m-2212 -21 c-2 -12 -13
-28 -24 -36 -19 -12 -22 -12 -27 0 -6 16 27 57 44 57 6 0 9 -10 7 -21z m1511
5 c13 -12 -8 -10 -29 2 l-25 15 25 -7 c14 -3 27 -8 29 -10z m294 1 c4 -8 1
-17 -5 -21 -7 -4 -8 -3 -4 4 4 7 2 12 -4 12 -6 0 -8 5 -5 10 8 14 12 13 18 -5z
m-1343 -11 c0 -8 -5 -12 -10 -9 -6 4 -8 11 -5 16 9 14 15 11 15 -7z m1780 12
c0 -11 -19 -15 -25 -6 -3 5 1 10 9 10 9 0 16 -2 16 -4z m55 -24 c-3 -3 -11 0
-18 7 -9 10 -8 11 6 5 10 -3 15 -9 12 -12z m-1768 -29 c-3 -10 -5 -4 -5 12 0
17 2 24 5 18 2 -7 2 -21 0 -30z m510 0 c-3 -10 -5 -4 -5 12 0 17 2 24 5 18 2
-7 2 -21 0 -30z m1432 28 c7 -5 9 -11 5 -14 -5 -3 -15 1 -22 9 -14 16 -5 18
17 5z m-2032 -23 c-3 -8 -6 -5 -6 6 -1 11 2 17 5 13 3 -3 4 -12 1 -19z m1408
12 c3 -5 -1 -10 -10 -10 -9 0 -13 5 -10 10 3 6 8 10 10 10 2 0 7 -4 10 -10z
m436 -4 c6 3 7 -6 3 -23 -9 -36 -14 -42 -14 -15 0 11 -2 26 -3 34 -2 7 -2 10
0 5 3 -4 9 -4 14 -1z m352 -87 c5 -30 5 -31 -4 -9 -6 14 -19 42 -30 62 -26 50
-24 58 4 16 13 -19 26 -50 30 -69z m-1706 44 c-3 -10 -5 -2 -5 17 0 19 2 27 5
18 2 -10 2 -26 0 -35z m863 37 c13 -8 13 -10 -2 -10 -9 0 -20 5 -23 10 -8 13
5 13 25 0z m-157 -17 c-3 -7 -14 -13 -24 -13 -21 0 -26 16 -6 23 23 7 35 4 30
-10z m-1389 -4 c-3 -6 0 -15 7 -20 9 -6 10 -9 2 -9 -15 0 -26 17 -18 30 3 6 8
10 11 10 3 0 2 -5 -2 -11z m1616 2 c0 -13 -30 -22 -43 -14 -7 4 -2 10 13 14
14 4 26 7 28 8 1 1 2 -3 2 -8z m474 -16 c6 -10 22 -29 36 -41 18 -17 21 -23
10 -24 -8 0 -26 14 -39 31 -13 16 -30 28 -38 25 -13 -6 -18 15 -6 28 10 10 25
2 37 -19z m-1754 -6 c0 -5 -4 -9 -10 -9 -5 0 -10 7 -10 16 0 8 5 12 10 9 6 -3
10 -10 10 -16z m448 -94 c0 -96 -5 -81 -11 35 -2 47 0 76 4 65 4 -11 7 -56 7
-100z m897 86 c3 -5 1 -12 -5 -16 -5 -3 -10 1 -10 9 0 18 6 21 15 7z m-1556
-28 c-5 -14 -8 -38 -6 -52 2 -14 2 -20 0 -13 -3 7 -8 10 -12 8 -13 -8 -5 52 9
69 18 22 21 19 9 -12z m257 5 c0 -27 -21 -52 -36 -43 -5 3 -9 16 -9 28 1 17 2
18 6 5 2 -10 9 -18 15 -18 6 0 8 9 5 20 -3 10 0 21 7 24 6 2 11 5 11 5 1 1 1
-9 1 -21z m1400 14 c8 -5 7 -11 -4 -22 -14 -13 -15 -12 -9 2 4 11 0 18 -11 21
-13 4 -13 5 -2 6 8 0 20 -3 26 -7z m519 -2 c3 -5 1 -10 -4 -10 -6 0 -11 5 -11
10 0 6 2 10 4 10 3 0 8 -4 11 -10z m-2371 -25 c-7 -16 -24 -21 -24 -6 0 8 7
13 27 20 1 1 0 -6 -3 -14z m2423 -7 c-3 -8 -6 -5 -6 6 -1 11 2 17 5 13 3 -3 4
-12 1 -19z m-2028 -30 c1 -5 -3 -8 -9 -8 -5 0 -10 12 -9 28 0 24 1 25 9 7 5
-11 9 -23 9 -27z m1171 27 c-7 -8 -17 -15 -22 -15 -6 0 -5 7 2 15 7 8 17 15
22 15 6 0 5 -7 -2 -15z m-2000 -10 c0 -18 -87 -135 -101 -135 -15 0 -10 38 8
68 41 66 93 104 93 67z m2820 11 c0 -3 -4 -8 -10 -11 -5 -3 -10 -1 -10 4 0 6
5 11 10 11 6 0 10 -2 10 -4z m-250 -20 c0 -2 -13 -6 -29 -8 -17 -2 -28 -1 -25
4 5 8 54 12 54 4z m40 -6 c0 -5 -5 -10 -11 -10 -5 0 -7 5 -4 10 3 6 8 10 11
10 2 0 4 -4 4 -10z m-2580 -26 c0 -17 -22 -14 -28 4 -2 7 3 12 12 12 9 0 16
-7 16 -16z m326 -8 c2 -20 -1 -22 -11 -13 -9 8 -10 16 -3 25 13 16 13 16 14
-12z m-336 -16 c9 0 1 -39 -12 -55 -4 -5 -17 -22 -29 -37 -48 -65 -69 -5 -21
63 15 22 33 37 40 34 8 -3 17 -5 22 -5z m310 -9 c0 -5 -7 -12 -16 -15 -14 -5
-15 -4 -4 9 14 17 20 19 20 6z m2397 -13 c-3 -8 -6 -5 -6 6 -1 11 2 17 5 13 3
-3 4 -12 1 -19z m226 8 c4 -10 1 -13 -8 -9 -8 3 -12 9 -9 14 7 12 11 11 17 -5z
m-73 -47 c0 -14 -17 -10 -23 5 -4 10 -1 13 9 9 7 -3 14 -9 14 -14z m101 -23
c5 -6 9 -14 9 -20 0 -5 -7 -1 -15 10 -8 10 -14 28 -14 39 l1 20 5 -20 c3 -11
9 -24 14 -29z m-2731 5 c0 -5 -7 -12 -16 -15 -14 -5 -15 -4 -4 9 14 17 20 19
20 6z m2640 -11 c0 -5 -2 -10 -4 -10 -3 0 -8 5 -11 10 -3 6 -1 10 4 10 6 0 11
-4 11 -10z m-99 -19 c6 10 9 11 9 2 0 -7 -8 -21 -18 -31 -17 -17 -18 -17 -18
15 0 26 2 30 9 17 8 -13 11 -14 18 -3z m-2240 -42 c-9 -22 -10 -22 -10 -3 -1
11 2 24 6 27 12 12 14 0 4 -24z m-14 -49 c-2 -29 -14 -25 -14 5 0 13 3 22 8
20 4 -3 7 -14 6 -25z m2250 8 c-3 -8 -6 -5 -6 6 -1 11 2 17 5 13 3 -3 4 -12 1
-19z m252 9 c8 -10 7 -14 -4 -14 -8 0 -15 6 -15 14 0 7 2 13 4 13 2 0 9 -6 15
-13z m-38 -20 c-10 -9 -11 -8 -5 6 3 10 9 15 12 12 3 -3 0 -11 -7 -18z m-3565
-35 c-23 -23 -33 -6 -10 19 12 13 20 16 22 9 3 -7 -3 -19 -12 -28z m3536 16
c-3 -14 -1 -19 6 -14 8 5 10 1 5 -9 -5 -13 -7 -14 -14 -3 -7 11 -9 10 -9 -1 0
-8 -2 -12 -5 -9 -6 6 11 58 19 58 2 0 2 -10 -2 -22z m45 -20 c-3 -7 -5 -2 -5
12 0 14 2 19 5 13 2 -7 2 -19 0 -25z m29 -13 c-4 -14 -12 -25 -18 -25 -9 0 -9
3 0 12 7 7 12 21 12 32 0 10 3 17 6 13 4 -3 4 -18 0 -32z m-3279 -5 c3 -11 9
-20 15 -20 5 0 3 -6 -4 -13 -9 -10 -15 -11 -24 -3 -9 8 -9 13 0 19 7 4 3 9
-12 13 -18 5 -20 9 -10 15 21 13 29 11 35 -11z m3099 -74 c-3 -14 -11 -26 -16
-26 -6 0 -6 9 0 25 5 14 7 40 5 57 l-5 33 11 -32 c7 -17 9 -43 5 -57z m-3451
64 c3 -5 1 -10 -4 -10 -6 0 -11 5 -11 10 0 6 2 10 4 10 3 0 8 -4 11 -10z
m3590 1 c3 -5 1 -12 -5 -16 -5 -3 -10 1 -10 9 0 18 6 21 15 7z m-3175 -21 c0
-5 -2 -10 -4 -10 -3 0 -8 5 -11 10 -3 6 -1 10 4 10 6 0 11 -4 11 -10z m3069
-65 c0 -5 -4 -3 -9 5 -5 8 -9 22 -9 30 0 16 17 -16 18 -35z m-3153 -17 c2 -13
6 -37 9 -54 5 -21 2 -34 -9 -43 -17 -14 -36 -7 -36 15 0 17 -4 17 -38 0 -54
-27 -72 -29 -72 -8 0 15 5 19 20 15 23 -6 70 33 70 58 0 8 6 27 13 42 10 23
14 24 26 12 8 -8 16 -24 17 -37z m694 32 c0 -13 -7 -20 -20 -20 -23 0 -26 10
-8 28 18 18 28 15 28 -8z m2580 -1 c0 -14 -5 -19 -14 -16 -11 4 -13 1 -10 -11
5 -15 4 -15 -6 0 -8 14 -8 21 2 33 18 20 28 18 28 -6z m30 -59 c0 -22 -2 -40
-4 -40 -2 0 -6 18 -8 40 -2 22 0 40 4 40 5 0 8 -18 8 -40z m-3192 -18 c3 -41
-10 -72 -29 -72 -5 0 -9 27 -9 61 0 52 2 60 18 57 12 -2 18 -15 20 -46z m2982
44 c0 -11 -19 -15 -25 -6 -3 5 1 10 9 10 9 0 16 -2 16 -4z m-2763 -58 c-3 -8
-6 -5 -6 6 -1 11 2 17 5 13 3 -3 4 -12 1 -19z m98 3 c3 -5 1 -12 -5 -16 -5 -3
-10 1 -10 9 0 18 6 21 15 7z m2641 -88 c-7 -7 -25 23 -31 52 -6 27 -5 26 14
-9 11 -22 19 -41 17 -43z m21 35 l2 -42 -14 28 c-17 33 -19 50 -5 41 6 -3 10
-1 10 4 0 6 1 11 3 11 1 0 4 -19 4 -42z m103 11 c0 -6 -4 -7 -10 -4 -5 3 -10
11 -10 16 0 6 5 7 10 4 6 -3 10 -11 10 -16z m0 -40 c0 -5 -4 -9 -10 -9 -5 0
-10 7 -10 16 0 8 5 12 10 9 6 -3 10 -10 10 -16z m-2810 1 c0 -5 -5 -10 -11
-10 -5 0 -7 5 -4 10 3 6 8 10 11 10 2 0 4 -4 4 -10z m2926 -223 c-6 -21 -16
-35 -23 -33 -6 3 -14 -2 -17 -10 -6 -16 -26 -19 -26 -3 0 5 4 8 9 5 23 -14 21
72 -1 101 -7 8 -5 18 6 28 15 15 16 12 16 -34 0 -57 12 -72 29 -35 13 30 14
45 1 24 -5 -8 -13 -11 -17 -6 -4 5 -2 11 5 13 6 3 13 23 13 46 l2 42 7 -50 c5
-30 3 -65 -4 -88z m-3316 17 c32 -66 33 -81 7 -71 -18 7 -57 86 -57 115 0 40
19 23 50 -44z m487 -11 c-3 -10 -5 -2 -5 17 0 19 2 27 5 18 2 -10 2 -26 0 -35z
m2663 22 c11 -21 11 -29 0 -50 -16 -30 -30 -23 -29 13 l1 27 8 -25 c8 -25 8
-25 9 4 1 17 -6 34 -16 42 -16 12 -16 13 -2 14 9 0 22 -11 29 -25z m97 -23
c-8 -9 -17 -24 -20 -32 -4 -12 -6 -12 -6 2 -1 9 6 23 14 32 9 8 15 19 14 23
-3 18 4 27 8 10 3 -10 -2 -26 -10 -35z m-3313 21 c6 -19 27 -54 37 -63 10 -9
18 -38 12 -44 -9 -9 -43 13 -43 29 0 7 -5 15 -10 17 -14 4 -26 78 -12 78 5 0
12 -8 16 -17z m433 -25 c-3 -8 -6 -5 -6 6 -1 11 2 17 5 13 3 -3 4 -12 1 -19z
m-19 -24 c0 -17 -3 -22 -8 -13 -5 6 -6 18 -3 26 8 19 11 16 11 -13z m-91 -46
c-3 -8 -6 -5 -6 6 -1 11 2 17 5 13 3 -3 4 -12 1 -19z m333 12 c0 -5 -2 -10 -4
-10 -3 0 -8 5 -11 10 -3 6 -1 10 4 10 6 0 11 -4 11 -10z m2662 -37 c10 3 18 0
18 -6 0 -7 5 -5 10 3 16 25 11 -3 -6 -30 -14 -23 -14 -23 -9 -2 6 21 -5 27
-45 24 -3 0 -5 14 -6 31 l0 32 10 -28 c7 -20 16 -27 28 -24z m8 23 c0 -3 -4
-8 -10 -11 -5 -3 -10 -1 -10 4 0 6 5 11 10 11 6 0 10 -2 10 -4z m-60 -45 c0
-17 -18 -21 -24 -6 -3 9 0 15 9 15 8 0 15 -4 15 -9z m-21 -61 c0 -10 -3 -8 -9
5 -12 27 -12 43 0 25 5 -8 9 -22 9 -30z m-2965 -18 c-3 -10 6 -28 24 -45 l30
-28 6 35 c4 19 12 38 18 42 7 4 8 3 4 -4 -4 -7 -3 -12 3 -12 6 0 8 -6 5 -14
-3 -8 7 -26 21 -41 26 -25 26 -27 9 -40 -17 -13 -17 -14 -2 -15 9 0 18 -5 20
-11 2 -6 14 -1 27 10 29 25 32 26 25 6 -4 -8 -10 -15 -15 -15 -14 0 -11 -38 4
-44 6 -3 0 -3 -16 1 -15 3 -34 0 -41 -6 -9 -8 -17 -8 -20 -2 -3 5 0 12 6 15 7
4 3 4 -9 2 -30 -5 -35 5 -18 38 13 24 13 31 0 54 -9 17 -15 22 -16 12 -1 -8
-3 -19 -4 -25 -2 -5 -3 -16 -4 -24 -2 -20 -79 50 -80 72 -1 17 15 57 23 57 2
0 2 -8 0 -18z m158 -27 c3 3 5 -8 4 -25 -1 -16 -3 -30 -6 -30 -13 1 -40 29
-40 42 0 21 11 29 25 18 7 -5 14 -8 17 -5z m-172 -55 c18 -23 30 -44 26 -47
-6 -6 -75 66 -76 80 0 18 21 4 50 -33z m2960 -20 c0 -19 -18 -19 -23 -1 -3 14
-1 18 9 14 8 -3 14 -9 14 -13z m-2710 -19 c0 -5 -7 -12 -16 -15 -14 -5 -15 -4
-4 9 14 17 20 19 20 6z m56 -80 c-8 -9 -15 -19 -15 -24 -1 -15 -20 -42 -21
-29 0 7 -4 11 -9 7 -5 -3 -13 0 -17 6 -4 8 -3 9 4 5 7 -4 12 -1 12 6 0 9 3 9
10 -2 8 -12 10 -13 10 -1 0 8 7 23 17 33 9 11 11 18 5 18 -7 0 -12 5 -12 11 0
8 5 7 15 -1 14 -11 14 -15 1 -29z m-59 -67 c-3 -3 -12 -4 -19 -1 -8 3 -5 6 6
6 11 1 17 -2 13 -5z"/>
<path d="M3038 6353 c-21 -24 -72 -123 -66 -128 3 -3 11 7 19 23 7 15 26 46
42 70 30 44 32 66 5 35z"/>
<path d="M3077 6281 c-4 -17 -3 -21 5 -13 5 5 8 16 6 23 -3 8 -7 3 -11 -10z"/>
<path d="M4740 6251 c0 -6 5 -13 10 -16 6 -3 10 1 10 9 0 9 -4 16 -10 16 -5 0
-10 -4 -10 -9z"/>
<path d="M4680 6228 c0 -15 5 -30 10 -33 13 -8 13 25 0 45 -8 12 -10 9 -10
-12z"/>
<path d="M3055 6229 c-4 -6 -5 -12 -2 -15 2 -3 7 2 10 11 7 17 1 20 -8 4z"/>
<path d="M4811 6083 c7 -12 15 -20 18 -17 3 2 -3 12 -13 22 -17 16 -18 16 -5
-5z"/>
<path d="M3045 5765 c-16 -14 -25 -25 -20 -25 6 0 24 11 40 25 17 13 26 24 20
24 -5 0 -23 -11 -40 -24z"/>
<path d="M3793 5575 c-23 -22 -31 -65 -13 -65 6 0 10 -15 11 -32 1 -51 17 -4
18 51 1 60 13 45 13 -16 0 -33 3 -42 8 -28 8 22 3 97 -8 106 -4 3 -17 -4 -29
-16z m7 -45 c0 -5 -5 -10 -11 -10 -5 0 -7 5 -4 10 3 6 8 10 11 10 2 0 4 -4 4
-10z"/>
<path d="M4730 5561 c0 -6 5 -13 10 -16 6 -3 10 1 10 9 0 9 -4 16 -10 16 -5 0
-10 -4 -10 -9z"/>
<path d="M5080 5560 c0 -5 5 -10 10 -10 6 0 10 5 10 10 0 6 -4 10 -10 10 -5 0
-10 -4 -10 -10z"/>
<path d="M4268 5508 c12 -6 22 -17 22 -24 0 -7 10 -14 23 -16 14 -2 21 -9 21
-21 -1 -9 2 -17 7 -17 4 0 11 -17 15 -37 6 -31 8 -34 14 -18 4 11 4 22 0 25
-16 10 -16 65 0 55 15 -9 12 3 -7 36 -10 16 -24 29 -33 29 -12 -1 -11 -4 4
-15 11 -8 17 -17 14 -20 -8 -8 -58 13 -58 25 0 5 -10 10 -22 9 l-23 0 23 -11z"/>
<path d="M4822 5500 c7 -11 16 -16 21 -11 12 12 0 31 -19 31 -12 0 -12 -3 -2
-20z"/>
<path d="M4136 5485 c2 -11 4 -31 5 -45 l1 -25 8 25 c11 35 12 52 1 45 -5 -3
-11 0 -14 7 -2 7 -3 4 -1 -7z"/>
<path d="M4117 5460 c3 -25 10 -54 14 -65 5 -12 6 -2 2 25 -3 25 -10 54 -14
65 -5 12 -6 2 -2 -25z"/>
<path d="M4241 5484 c0 -11 3 -14 6 -6 3 7 2 16 -1 19 -3 4 -6 -2 -5 -13z"/>
<path d="M3450 5470 c-9 -16 -8 -18 5 -14 8 4 15 12 15 20 0 20 -7 17 -20 -6z"/>
<path d="M3571 5467 c-19 -21 -20 -25 -6 -37 10 -8 15 -9 15 -1 0 6 -6 11 -12
12 -7 0 -3 5 10 11 12 6 22 17 22 25 0 18 -3 17 -29 -10z"/>
<path d="M4650 5484 c0 -9 33 -33 44 -34 6 0 0 9 -12 20 -22 21 -32 25 -32 14z"/>
<path d="M4870 5480 c0 -5 5 -10 11 -10 5 0 7 5 4 10 -3 6 -8 10 -11 10 -2 0
-4 -4 -4 -10z"/>
<path d="M4806 5472 c-3 -6 -1 -14 5 -17 15 -10 25 3 12 16 -7 7 -13 7 -17 1z"/>
<path d="M3807 5445 c-8 -20 2 -95 13 -95 5 0 4 16 -1 36 -13 46 -5 69 9 24 6
-20 10 -26 11 -15 0 11 -6 31 -13 44 -11 20 -14 21 -19 6z"/>
<path d="M4247 5425 c7 -49 13 -58 13 -19 0 16 -5 36 -10 44 -6 10 -7 2 -3
-25z"/>
<path d="M4275 5450 c-3 -5 -1 -10 4 -10 6 0 11 5 11 10 0 6 -2 10 -4 10 -3 0
-8 -4 -11 -10z"/>
<path d="M4835 5450 c-8 -12 3 -70 14 -70 8 0 7 67 -1 76 -3 3 -9 0 -13 -6z"/>
<path d="M4913 5449 c9 -5 17 -20 17 -33 0 -17 -8 -25 -32 -32 -29 -9 -33 -14
-30 -39 2 -15 8 -38 12 -49 9 -21 9 -21 9 1 1 12 -3 33 -9 47 -11 29 0 33 43
17 20 -8 27 -6 31 5 5 12 1 14 -17 9 -20 -6 -20 -6 -6 6 26 22 27 42 3 61 -12
10 -26 18 -31 18 -4 0 0 -5 10 -11z"/>
<path d="M3410 5420 c-8 -15 -7 -27 4 -47 16 -31 21 -24 29 35 4 37 -16 44
-33 12z"/>
<path d="M3543 5417 c6 -15 3 -17 -13 -12 -12 4 -20 2 -20 -5 0 -6 5 -8 12 -4
8 5 9 1 4 -12 -6 -17 -4 -16 16 3 18 19 20 25 9 35 -12 11 -13 10 -8 -5z"/>
<path d="M4391 5404 c0 -11 3 -14 6 -6 3 7 2 16 -1 19 -3 4 -6 -2 -5 -13z"/>
<path d="M4862 5408 c5 -15 28 -23 28 -10 0 5 -7 13 -16 16 -10 4 -14 1 -12
-6z"/>
<path d="M4726 5397 c3 -10 9 -15 12 -12 3 3 0 11 -7 18 -10 9 -11 8 -5 -6z"/>
<path d="M3473 5376 c-15 -9 -19 -16 -13 -26 5 -8 10 -12 12 -10 9 15 28 50
26 49 -2 -1 -13 -6 -25 -13z"/>
<path d="M4757 5372 c3 -7 12 -11 20 -8 8 3 17 -2 20 -12 4 -9 15 -28 25 -41
10 -13 16 -26 13 -29 -3 -3 -11 2 -18 12 -12 16 -13 16 -12 -7 0 -13 6 -31 14
-40 7 -9 11 -24 7 -32 -3 -8 -1 -15 4 -15 13 0 13 30 0 50 -7 11 -3 18 13 27
12 7 16 12 10 13 -7 0 -13 7 -13 15 0 7 -6 18 -13 22 -6 4 -18 19 -25 33 -13
26 -54 37 -45 12z"/>
<path d="M3495 5360 c-3 -5 -1 -10 4 -10 6 0 11 5 11 10 0 6 -2 10 -4 10 -3 0
-8 -4 -11 -10z"/>
<path d="M4156 5330 c4 -25 12 -58 19 -75 l13 -30 -6 40 c-3 22 -11 56 -19 75
l-13 35 6 -45z"/>
<path d="M4201 5344 c0 -11 3 -14 6 -6 3 7 2 16 -1 19 -3 4 -6 -2 -5 -13z"/>
<path d="M4270 5346 c0 -8 -3 -21 -6 -30 -3 -9 -2 -16 4 -16 5 0 12 14 14 30
3 17 1 30 -4 30 -4 0 -8 -6 -8 -14z"/>
<path d="M3901 5324 c0 -11 3 -14 6 -6 3 7 2 16 -1 19 -3 4 -6 -2 -5 -13z"/>
<path d="M4388 5315 c2 -14 6 -25 8 -25 2 0 4 11 4 25 0 14 -4 25 -9 25 -4 0
-6 -11 -3 -25z"/>
<path d="M4910 5300 c0 -11 5 -20 10 -20 6 0 10 -4 10 -9 0 -5 -10 -7 -22 -5
-18 3 -17 1 5 -8 15 -7 27 -18 27 -27 0 -8 3 -12 6 -8 8 8 -18 97 -28 97 -4 0
-8 -9 -8 -20z"/>
<path d="M3842 5290 c0 -14 2 -19 5 -12 2 6 2 18 0 25 -3 6 -5 1 -5 -13z"/>
<path d="M3902 5255 c0 -16 2 -22 5 -12 2 9 2 23 0 30 -3 6 -5 -1 -5 -18z"/>
<path d="M4854 5235 c0 -19 4 -31 8 -29 5 3 11 -3 15 -13 4 -10 11 -21 17 -25
8 -6 6 -12 -4 -19 -12 -9 -12 -10 4 -5 13 5 17 2 12 -9 -3 -8 -1 -15 4 -15 6
0 10 -5 10 -11 0 -5 -4 -8 -9 -4 -11 6 -26 -33 -17 -42 3 -4 6 1 6 11 0 9 4
15 9 12 5 -4 12 0 15 6 3 7 4 1 1 -14 -3 -15 0 -30 7 -34 8 -5 9 -2 5 9 -3 10
-3 17 1 17 11 0 30 -48 27 -68 -1 -9 0 -11 2 -4 3 7 9 9 15 6 6 -4 9 -3 7 2
-16 33 -45 90 -49 94 -10 10 -70 136 -70 147 0 6 -4 14 -8 17 -4 2 -8 -10 -8
-29z"/>
<path d="M4420 5240 c0 -5 7 -7 15 -4 8 4 15 8 15 10 0 2 -7 4 -15 4 -8 0 -15
-4 -15 -10z"/>
<path d="M4917 5220 c3 -11 7 -20 9 -20 2 0 4 9 4 20 0 11 -4 20 -9 20 -5 0
-7 -9 -4 -20z"/>
<path d="M3917 5213 c-3 -5 -1 -17 4 -28 7 -17 8 -17 8 8 1 27 -4 34 -12 20z"/>
<path d="M3878 5203 c7 -3 16 -2 19 1 4 3 -2 6 -13 5 -11 0 -14 -3 -6 -6z"/>
<path d="M4185 5200 c-3 -6 1 -7 9 -4 18 7 21 14 7 14 -6 0 -13 -4 -16 -10z"/>
<path d="M4435 5155 c0 -30 2 -51 3 -45 2 6 7 8 10 6 4 -2 5 18 4 45 -5 66
-17 62 -17 -6z"/>
<path d="M4949 5197 c7 -9 11 -24 7 -32 -10 -26 7 -50 37 -51 18 0 24 3 17 10
-5 5 -10 25 -10 43 0 22 -5 33 -14 33 -8 0 -23 3 -33 7 -16 6 -16 5 -4 -10z"/>
<path d="M2100 5191 c0 -5 5 -13 10 -16 6 -3 10 -2 10 4 0 5 -4 13 -10 16 -5
3 -10 2 -10 -4z"/>
<path d="M3147 5193 c-4 -3 -7 -11 -7 -17 0 -6 5 -5 12 2 6 6 9 14 7 17 -3 3
-9 2 -12 -2z"/>
<path d="M4253 5145 c0 -33 2 -45 4 -27 2 18 2 45 0 60 -2 15 -4 0 -4 -33z"/>
<path d="M3121 5174 c0 -11 3 -14 6 -6 3 7 2 16 -1 19 -3 4 -6 -2 -5 -13z"/>
<path d="M3880 5183 c0 -6 8 -17 18 -24 16 -13 16 -13 2 6 -8 11 -16 22 -17
24 -2 2 -3 0 -3 -6z"/>
<path d="M4930 5181 c0 -5 5 -13 10 -16 6 -3 10 -2 10 4 0 5 -4 13 -10 16 -5
3 -10 2 -10 -4z"/>
<path d="M4202 5160 c0 -14 2 -19 5 -12 2 6 2 18 0 25 -3 6 -5 1 -5 -13z"/>
<path d="M3120 5125 c0 -8 -5 -14 -12 -12 -8 1 -12 -22 -12 -75 -1 -42 2 -74
6 -72 3 2 8 -2 11 -8 3 -8 9 -3 16 13 12 25 56 53 96 62 17 4 17 5 -3 6 -24 1
-81 -25 -94 -44 -5 -6 -8 -6 -8 2 0 6 -3 20 -6 30 -5 15 -4 15 5 3 8 -11 11 0
11 48 0 34 -2 62 -5 62 -3 0 -5 -7 -5 -15z m0 -41 c0 -8 -4 -12 -10 -9 -5 3
-10 13 -10 21 0 8 5 12 10 9 6 -3 10 -13 10 -21z"/>
<path d="M4602 5115 c0 -16 4 -41 8 -55 l8 -25 0 25 c0 14 -4 39 -8 55 l-8 30
0 -30z"/>
<path d="M4213 5070 c0 -30 2 -43 4 -27 2 15 2 39 0 55 -2 15 -4 2 -4 -28z"/>
<path d="M5037 5103 c3 -7 9 -10 14 -7 14 8 11 21 -5 21 -8 0 -12 -6 -9 -14z"/>
<path d="M5086 5112 c-8 -14 5 -50 20 -56 17 -7 19 10 2 17 -10 4 -10 8 -2 14
9 6 8 11 -2 20 -7 7 -15 9 -18 5z"/>
<path d="M3920 5101 c0 -6 4 -13 10 -16 6 -3 7 1 4 9 -7 18 -14 21 -14 7z"/>
<path d="M4995 5090 c-7 -11 15 -80 26 -80 4 0 14 -15 23 -32 9 -18 34 -58 56
-88 41 -57 49 -87 28 -108 -9 -9 -9 -12 0 -12 19 0 26 49 12 91 -7 21 -15 37
-18 34 -6 -6 -42 35 -42 48 0 5 -14 26 -30 47 -28 36 -29 39 -13 50 17 11 17
11 1 6 -12 -3 -18 0 -18 9 0 8 -5 15 -11 15 -6 0 -9 7 -5 15 6 17 0 20 -9 5z"/>
<path d="M5294 5085 c3 -8 1 -15 -4 -15 -6 0 -10 -8 -9 -17 0 -11 3 -13 6 -5
2 6 17 12 32 12 20 0 27 5 28 20 1 11 -2 20 -8 20 -5 0 -9 -7 -9 -15 0 -8 -4
-15 -10 -15 -5 0 -10 7 -10 15 0 8 -5 15 -11 15 -6 0 -9 -7 -5 -15z"/>
<path d="M4351 5070 c-13 -11 -19 -20 -14 -20 6 0 20 9 33 20 30 26 12 26 -19
0z"/>
<path d="M4532 5070 c0 -14 2 -19 5 -12 2 6 2 18 0 25 -3 6 -5 1 -5 -13z"/>
<path d="M5051 5068 c8 -7 20 -20 27 -28 11 -13 11 -10 1 13 -7 15 -19 27 -28
27 -13 0 -13 -2 0 -12z"/>
<path d="M4410 5059 c0 -5 8 -9 18 -9 10 0 24 -6 31 -12 10 -11 11 -10 6 3 -7
18 -55 33 -55 18z"/>
<path d="M4484 5028 c-5 -7 -2 -8 6 -3 7 4 15 2 20 -5 5 -9 8 -8 13 2 6 17
-29 22 -39 6z"/>
<path d="M4535 5010 c-3 -5 -1 -18 5 -27 9 -15 10 -14 4 6 -4 17 -3 21 6 16 9
-5 11 -4 6 3 -9 15 -13 15 -21 2z"/>
<path d="M5090 5012 c0 -6 6 -17 13 -24 8 -7 12 -24 10 -36 -2 -14 1 -21 7
-17 16 10 12 35 -10 62 -11 14 -20 21 -20 15z"/>
<path d="M1943 4935 c12 -144 72 -265 207 -417 89 -101 181 -178 346 -292
l141 -97 -5 -48 c-8 -88 23 -179 102 -301 43 -65 44 -85 11 -210 -44 -173 -80
-268 -175 -475 -120 -258 -119 -442 2 -610 15 -23 42 -49 59 -59 l31 -18 -4
-138 c-2 -92 0 -133 7 -125 32 38 403 118 650 140 120 11 575 14 675 4 340
-33 358 -35 507 -70 45 -10 93 -19 106 -19 12 0 29 -6 36 -12 11 -11 12 -4 9
34 -2 27 1 49 6 51 5 2 4 11 -2 22 -5 11 -10 83 -11 160 0 79 -5 141 -10 143
-5 2 -7 18 -4 35 2 18 -2 135 -11 261 -12 176 -19 233 -31 246 -27 29 -35 75
-19 105 13 24 12 26 -1 15 -8 -7 -15 -19 -15 -26 0 -8 -6 -11 -15 -8 -8 4 -15
12 -15 20 0 8 -10 15 -22 15 -17 1 -19 2 -5 6 21 5 21 4 1 39 -15 29 -16 29
-10 3 4 -19 1 -26 -10 -26 -18 0 -74 50 -74 66 0 6 -17 11 -38 11 -32 0 -41
-5 -50 -25 -6 -14 -8 -25 -4 -25 4 0 8 -30 8 -66 1 -41 -2 -61 -8 -52 -7 10
-10 10 -19 -4 -16 -27 -29 -21 -16 7 7 14 17 23 22 21 9 -3 11 16 6 70 0 8 -6
12 -11 9 -8 -5 -7 -11 0 -21 9 -10 5 -23 -17 -56 -26 -38 -33 -43 -64 -40 -19
2 -40 11 -47 20 -11 15 -14 15 -22 2 -13 -20 -12 -26 5 -40 9 -7 25 -10 41 -6
17 5 23 3 19 -4 -14 -23 -55 -9 -99 34 -24 24 -46 50 -49 58 -3 7 -6 -4 -6
-26 -1 -33 -4 -38 -21 -33 -11 3 -20 1 -20 -5 0 -15 -43 3 -59 24 -7 11 -20
17 -28 14 -11 -5 -13 -2 -9 10 3 9 -3 27 -14 41 l-20 26 0 -44 c1 -43 1 -44
15 -19 8 14 14 20 15 14 0 -5 -6 -19 -14 -30 -14 -18 -16 -18 -32 -2 -10 10
-17 31 -16 50 0 18 -3 37 -8 43 -5 6 -7 20 -5 30 2 11 4 22 4 25 1 3 6 -2 11
-10 9 -13 10 -13 10 0 0 13 1 13 10 0 8 -13 11 -13 22 -1 8 9 8 11 1 7 -13 -7
-28 28 -19 43 4 5 0 12 -6 14 -10 4 -10 6 0 6 23 2 12 21 -12 21 -14 0 -28 5
-32 11 -4 7 28 10 109 8 64 -2 119 0 123 4 10 9 -9 10 -143 7 -70 -1 -113 2
-113 8 0 5 -11 13 -24 16 -41 10 -104 77 -115 121 -8 36 -9 37 -9 10 -1 -34
15 -120 17 -92 0 9 5 17 10 17 14 0 21 -28 8 -34 -7 -4 -2 -4 10 -2 12 2 27
-2 34 -10 6 -8 18 -14 25 -14 8 0 14 -4 14 -10 0 -15 -33 -12 -56 5 -23 17
-34 19 -34 5 0 -5 7 -10 15 -10 8 0 15 -4 15 -10 0 -15 -10 -12 -46 15 -23 18
-31 30 -27 45 3 10 1 33 -5 49 -7 20 -7 32 1 40 6 6 8 14 4 17 -3 3 -19 -8
-35 -26 -16 -17 -42 -38 -58 -46 -18 -10 -24 -11 -16 -3 6 7 12 22 12 33 0 26
28 56 46 49 9 -3 14 2 14 16 0 12 -6 21 -15 21 -8 0 -15 4 -15 10 0 5 -11 12
-25 16 -35 9 -31 36 8 57 27 15 39 16 62 7 23 -9 26 -8 17 3 -7 8 -9 17 -5 20
3 4 1 7 -5 7 -7 0 -12 -3 -12 -7 0 -5 -18 -8 -41 -9 -22 0 -44 -6 -48 -13 -5
-7 -11 -49 -14 -94 -4 -45 -11 -83 -17 -85 -17 -6 -11 -60 8 -71 23 -14 6 -14
-19 -1 -15 9 -19 7 -19 -7 0 -26 -74 -173 -85 -170 -5 2 -12 26 -15 53 -5 42
-6 36 -12 -46 -7 -93 -16 -134 -44 -197 -8 -17 -14 -38 -14 -46 0 -8 -6 -20
-14 -26 -8 -7 -17 -39 -20 -74 -3 -34 -7 -74 -8 -89 -2 -14 -6 -30 -10 -34 -5
-4 -8 -16 -8 -26 0 -10 -4 -18 -9 -18 -5 0 -11 -7 -13 -15 -5 -25 -102 -134
-117 -132 -10 1 -18 -12 -24 -40 -8 -44 -69 -123 -93 -123 -7 0 -14 -5 -16
-12 -2 -6 -30 -13 -64 -15 -50 -4 -63 -1 -86 19 -15 13 -38 31 -52 40 -34 24
-73 98 -92 174 -14 56 -14 75 -4 132 7 37 16 72 20 77 4 6 11 24 14 41 4 16
18 52 31 79 14 26 25 56 25 66 0 9 3 19 8 21 11 5 49 89 57 126 4 17 11 32 15
32 5 0 12 17 15 38 3 20 10 45 16 54 5 10 9 29 9 43 0 13 7 46 16 72 9 26 17
64 18 85 0 20 4 34 8 32 12 -7 28 42 28 82 0 37 -37 127 -49 119 -4 -2 -8 1
-8 8 0 7 -12 31 -26 54 -15 24 -27 47 -27 53 0 6 -7 25 -16 41 -8 17 -17 44
-18 62 -2 18 -7 40 -11 51 -5 10 -3 21 2 25 5 3 10 13 10 21 0 8 4 23 8 33 5
13 2 17 -14 17 -12 0 -38 11 -59 24 -20 14 -49 28 -64 31 -16 4 -28 11 -28 16
0 5 -6 9 -14 9 -7 0 -20 7 -27 16 -7 9 -21 19 -30 23 -47 17 -246 210 -262
254 -4 9 -11 17 -16 17 -9 0 -35 38 -79 114 -12 22 -25 57 -29 78 -3 21 -10
41 -14 44 -5 3 -9 16 -9 30 0 28 -25 32 -68 11 -24 -12 -48 -14 -102 -9 -18 2
-43 79 -28 88 5 3 3 13 -4 21 -7 9 -11 18 -10 20 2 3 0 8 -4 11 -4 4 -4 -24
-1 -63z m113 -134 c-7 -11 -66 -20 -66 -10 0 8 24 16 53 18 10 0 16 -3 13 -8z
m5 -27 c-1 -8 -71 -18 -71 -10 0 6 63 24 68 20 2 -1 3 -6 3 -10z m554 -534 c3
-5 1 -10 -4 -10 -6 0 -11 5 -11 10 0 6 2 10 4 10 3 0 8 -4 11 -10z m-31 -35
c25 -19 9 -19 -24 0 -14 8 -19 14 -10 14 8 0 24 -6 34 -14z m173 -21 c-3 -3
-12 -4 -19 -1 -8 3 -5 6 6 6 11 1 17 -2 13 -5z m-124 -21 c-7 -2 -19 -2 -25 0
-7 3 -2 5 12 5 14 0 19 -2 13 -5z m137 -93 c0 -11 -2 -20 -4 -20 -2 0 -6 9 -9
20 -3 11 -1 20 4 20 5 0 9 -9 9 -20z m-25 -260 c3 -5 1 -10 -4 -10 -6 0 -11 5
-11 10 0 6 2 10 4 10 3 0 8 -4 11 -10z m156 -33 c-10 -9 -11 -8 -5 6 3 10 9
15 12 12 3 -3 0 -11 -7 -18z m29 -27 c0 -5 -2 -10 -4 -10 -3 0 -8 5 -11 10 -3
6 -1 10 4 10 6 0 11 -4 11 -10z m-30 -68 c-6 -2 -7 -8 -4 -13 3 -6 12 -5 22 2
13 10 13 9 -1 -7 -14 -15 -19 -16 -26 -5 -5 7 -6 22 -3 33 4 15 7 17 13 6 5
-7 4 -14 -1 -16z m617 -64 c-3 -8 -6 -5 -6 6 -1 11 2 17 5 13 3 -3 4 -12 1
-19z m-7 -69 c0 -5 -4 -9 -10 -9 -5 0 -10 7 -10 16 0 8 5 12 10 9 6 -3 10 -10
10 -16z m115 2 c3 -5 -2 -17 -11 -25 -8 -9 -20 -14 -25 -11 -14 9 -11 25 6 25
8 0 15 5 15 10 0 13 7 13 15 1z m-117 -59 c14 14 16 -1 2 -22 -8 -13 -11 -12
-24 5 -9 11 -15 25 -15 30 0 6 5 2 13 -7 10 -13 15 -15 24 -6z m-24 -52 c-3
-2 -9 2 -14 10 -8 13 -10 13 -10 1 0 -8 -2 -12 -5 -9 -3 3 -3 13 1 22 6 15 7
15 19 -1 8 -10 11 -20 9 -23z m314 18 c-2 -6 -14 -12 -26 -13 -17 -1 -19 1
-11 12 14 16 42 17 37 1z m-73 -8 c4 -6 -6 -10 -22 -9 -25 0 -26 1 -8 9 11 5
21 9 22 9 1 1 5 -3 8 -9z m-5 -100 c0 -5 -2 -10 -4 -10 -3 0 -8 5 -11 10 -3 6
-1 10 4 10 6 0 11 -4 11 -10z m64 -14 c-2 -14 3 -31 11 -40 8 -8 15 -18 15
-21 0 -4 9 -18 20 -32 25 -32 25 -42 1 -40 -11 0 -19 6 -18 12 1 5 -7 10 -18
10 -11 0 -19 -6 -17 -13 1 -8 -2 -11 -8 -7 -6 3 -8 11 -5 16 4 5 2 9 -4 9 -5
0 -11 -7 -13 -16 -2 -13 -8 -12 -31 8 -28 25 -27 38 3 38 13 0 19 11 24 40 5
31 23 56 43 60 1 0 0 -11 -3 -24z m-173 4 c20 -11 26 -45 9 -55 -6 -3 -18 1
-27 11 -11 11 -18 13 -21 5 -2 -6 -14 -11 -28 -11 -17 0 -22 4 -18 15 4 8 15
15 25 15 11 0 22 7 25 15 7 18 9 18 35 5z m87 -12 c5 -28 -54 -25 -61 3 -5 18
-1 20 26 17 21 -2 33 -9 35 -20z m128 -26 c8 -7 14 -21 13 -30 0 -14 -2 -14
-6 -2 -4 8 -12 21 -20 28 -7 7 -12 23 -12 35 1 20 2 20 6 3 3 -11 11 -26 19
-34z m-91 18 c-3 -5 -12 -10 -18 -10 -7 0 -6 4 3 10 19 12 23 12 15 0z m-95
-96 c0 -24 -5 -34 -15 -34 -10 0 -15 10 -15 33 0 19 3 37 6 40 13 13 24 -5 24
-39z m874 10 c4 -9 4 -19 1 -22 -3 -3 -5 1 -6 9 0 8 -4 6 -9 -6 -8 -18 -9 -17
-9 8 -1 30 13 36 23 11z m-574 -39 c0 -8 10 -19 21 -26 17 -9 19 -13 8 -20 -9
-5 -19 1 -31 19 -10 15 -18 21 -18 15 0 -7 -4 -13 -10 -13 -20 0 -10 36 10 37
11 1 20 -4 20 -12z m135 6 c3 -5 2 -12 -3 -15 -5 -3 -9 1 -9 9 0 17 3 19 12 6z
m238 -45 c4 -10 1 -13 -7 -10 -8 3 -17 1 -21 -5 -3 -6 -14 -11 -23 -11 -13 0
-12 5 8 20 30 24 36 24 43 6z m-296 -13 c-9 -9 -20 -13 -24 -9 -4 4 -1 11 7
16 25 16 35 11 17 -7z m83 -3 c0 -5 -6 -10 -12 -13 -7 -3 -3 -4 9 -4 12 1 19
5 17 9 -3 4 5 4 18 -1 13 -4 30 -6 38 -3 11 4 10 1 -3 -12 -11 -12 -24 -15
-39 -10 -12 3 -42 6 -66 6 -25 -1 -42 2 -38 6 4 3 17 7 29 7 14 0 22 6 21 17
-1 10 4 14 12 11 8 -3 14 -9 14 -13z m-88 -35 c6 -10 16 -14 29 -10 11 4 27 1
36 -7 14 -11 16 -11 8 1 -6 11 -1 12 28 7 22 -4 43 -2 55 5 14 9 25 8 50 -5
17 -9 40 -16 50 -16 20 0 87 -69 77 -79 -3 -2 -12 5 -21 17 -8 12 -21 22 -27
22 -8 0 -9 -2 -1 -8 25 -16 37 -59 35 -122 -2 -51 -7 -73 -28 -102 -14 -21
-32 -38 -39 -38 -17 0 -18 -12 -2 -28 8 -8 8 -12 1 -12 -6 0 -13 7 -17 15 -6
17 -46 21 -46 5 0 -5 5 -10 12 -10 6 0 9 -3 6 -6 -4 -3 -15 -1 -27 5 -16 9
-28 7 -58 -11 -49 -28 -48 -27 -39 -35 4 -4 11 -1 17 7 8 13 10 13 18 0 6 -8
13 -11 18 -7 4 5 2 12 -6 16 -10 7 -10 9 2 14 10 4 14 -1 13 -16 -1 -17 -8
-22 -31 -23 -16 0 -38 3 -47 8 -10 5 -18 6 -18 3 0 -9 23 -31 40 -38 9 -3 2
-6 -15 -7 l-30 -2 30 -8 c78 -22 80 -22 65 -11 -12 8 -11 10 7 9 12 -1 19 -7
16 -15 -8 -19 24 -16 35 4 8 14 10 14 17 -6 4 -14 2 -28 -5 -35 -10 -8 -11 -6
-5 13 5 16 4 21 -4 17 -6 -4 -11 -18 -11 -32 0 -13 -4 -24 -10 -24 -5 0 -10
-11 -10 -25 0 -16 6 -25 16 -25 8 0 12 -4 9 -10 -11 -17 -24 -11 -31 15 -7 30
-39 34 -41 5 -1 -11 2 -18 7 -15 11 7 40 -22 40 -40 0 -7 -12 -22 -26 -32
l-26 -19 26 -12 c14 -6 26 -7 26 -3 0 5 -8 11 -17 14 -17 4 -17 4 0 12 23 10
28 4 29 -37 1 -66 4 -63 -76 -63 -41 0 -72 3 -70 6 2 4 -3 9 -11 13 -8 3 -15
13 -15 22 0 11 -6 15 -18 12 -10 -3 -27 1 -37 8 -10 8 -14 14 -7 14 6 0 9 7 5
17 -4 11 -3 14 6 9 7 -5 10 -15 7 -23 -4 -10 0 -13 12 -11 15 3 18 19 22 115
5 96 9 115 25 129 17 13 17 15 3 10 -10 -3 -18 -3 -18 1 0 3 8 12 18 20 16 14
16 14 -1 9 -10 -3 -25 -6 -33 -6 -8 0 -14 -8 -14 -17 0 -14 2 -15 9 -5 5 9 8
2 8 -20 0 -18 -2 -25 -4 -15 -4 14 -12 16 -46 11 -47 -8 -61 -14 -30 -14 14 0
22 -8 25 -25 4 -17 1 -25 -9 -25 -19 0 -39 -20 -47 -48 -10 -29 2 -29 14 1 8
19 8 18 7 -10 -1 -18 -6 -28 -12 -25 -5 3 2 -10 16 -29 19 -25 25 -42 22 -65
l-5 -31 -46 9 c-45 8 -54 4 -65 -26 -2 -5 -12 -4 -23 2 -10 6 -15 12 -10 12 5
0 3 6 -4 14 -16 20 -26 161 -13 189 29 61 43 108 24 79 -7 -11 -9 -11 -14 2
-5 12 0 16 19 16 14 0 22 -4 19 -10 -3 -5 -1 -10 4 -10 6 0 11 5 11 10 0 6 18
10 41 10 24 0 38 -4 34 -10 -3 -5 -1 -10 4 -10 6 0 11 4 11 9 0 5 10 11 23 13
12 2 -42 7 -119 11 -78 4 -157 12 -175 17 -19 6 -55 10 -81 10 -63 0 -98 17
-98 47 0 16 -6 23 -19 23 -11 0 -30 13 -44 29 -14 17 -26 28 -28 26 -4 -3 -4
72 -1 111 1 11 16 36 32 54 21 24 27 36 18 41 -7 4 8 6 33 3 33 -3 39 -2 24 5
-17 9 -15 10 10 6 17 -2 32 -4 35 -4 3 -1 -1 -5 -8 -10 -11 -7 -11 -9 2 -14
12 -5 16 0 16 17 0 17 9 28 30 38 17 7 30 15 30 18 0 3 47 5 103 5 64 0 109 4
118 12 15 12 42 17 74 13 11 -2 0 -6 -25 -10 l-45 -7 48 -1 c45 -2 48 -1 42
19 -7 21 -5 22 36 16 24 -3 46 -13 51 -22z m568 15 c0 -5 -2 -10 -4 -10 -3 0
-8 5 -11 10 -3 6 -1 10 4 10 6 0 11 -4 11 -10z m-842 -27 c-15 -2 -42 -2 -60
0 -18 2 -6 4 27 4 33 0 48 -2 33 -4z m-441 -35 c-3 -8 -6 -5 -6 6 -1 11 2 17
5 13 3 -3 4 -12 1 -19z m-20 -35 c-3 -10 -5 -4 -5 12 0 17 2 24 5 18 2 -7 2
-21 0 -30z m1080 -55 c-3 -8 -6 -5 -6 6 -1 11 2 17 5 13 3 -3 4 -12 1 -19z
m17 -78 c4 -25 3 -31 -4 -20 -8 12 -10 9 -10 -12 0 -15 -5 -30 -11 -33 -10 -7
-6 38 8 88 6 23 9 20 17 -23z m-1174 -108 c0 -5 -7 -17 -15 -28 -14 -18 -14
-17 -4 9 12 27 19 34 19 19z m270 -57 c0 -8 -4 -15 -10 -15 -5 0 -7 7 -4 15 4
8 8 15 10 15 2 0 4 -7 4 -15z m10 -51 c0 -2 -14 -4 -31 -4 -16 0 -28 4 -25 9
5 8 56 3 56 -5z m66 6 c8 0 14 -7 14 -15 0 -8 8 -16 18 -16 16 -1 16 -2 0 -6
-13 -3 -18 -14 -17 -41 1 -33 2 -34 9 -12 8 25 8 25 9 2 1 -13 -5 -30 -13 -38
-13 -12 -15 -11 -19 8 -3 16 -5 12 -6 -12 -1 -19 -6 -53 -12 -75 -6 -22 -11
-51 -11 -65 0 -14 -3 -19 -5 -12 -4 10 -9 7 -20 -8 -22 -31 -88 -69 -114 -66
-60 8 -74 17 -86 54 -7 21 -10 47 -8 57 2 11 4 25 4 32 1 6 15 14 32 18 23 5
35 3 48 -10 9 -10 10 -15 4 -11 -19 10 -16 2 6 -18 14 -13 21 -14 27 -5 4 7 3
10 -4 5 -6 -3 -13 -2 -17 4 -6 9 7 14 28 11 4 0 7 24 7 54 0 47 -3 55 -19 55
-24 0 -40 20 -38 47 1 13 6 19 15 15 8 -3 17 1 22 7 4 7 41 16 81 21 41 4 64
8 52 9 -12 0 -25 6 -29 13 -5 8 -2 9 10 5 10 -4 24 -7 32 -7z m88 -9 c3 -5 -5
-8 -18 -7 -13 0 -22 4 -19 9 6 10 31 9 37 -2z m521 -11 c-3 -5 -12 -10 -18
-10 -7 0 -6 4 3 10 19 12 23 12 15 0z m-452 -7 c3 -5 -1 -14 -9 -21 -12 -11
-14 -9 -14 8 0 20 14 27 23 13z m-29 -40 c10 -64 7 -221 -5 -229 -6 -3 -8 -18
-5 -33 3 -14 3 -21 0 -15 -3 7 -13 10 -23 7 -51 -13 -51 221 0 275 13 15 15
22 6 25 -7 3 -6 6 4 6 11 1 18 -11 23 -36z m-44 17 c0 -5 -5 -10 -11 -10 -5 0
-7 5 -4 10 3 6 8 10 11 10 2 0 4 -4 4 -10z m155 -9 c3 -5 1 -12 -5 -16 -5 -3
-10 1 -10 9 0 18 6 21 15 7z m485 5 c0 -2 -7 -7 -16 -10 -8 -3 -12 -2 -9 4 6
10 25 14 25 6z m156 -10 c8 -8 14 -24 14 -36 0 -12 3 -19 8 -16 8 5 -1 -119
-14 -174 -7 -31 -25 -60 -37 -60 -9 0 -55 47 -66 68 -14 27 -41 29 -41 3 0
-11 -4 -22 -10 -26 -5 -3 -6 -13 -3 -21 4 -12 1 -15 -12 -13 -24 5 -53 57 -49
89 1 14 3 48 3 76 1 66 29 106 60 87 26 -16 34 -16 25 -1 -4 7 -3 8 4 4 6 -4
9 -12 7 -19 -3 -7 6 -25 20 -41 14 -16 25 -24 25 -19 0 6 -7 16 -15 23 -8 7
-15 17 -15 23 0 5 8 3 18 -6 17 -15 18 -14 20 15 4 52 30 72 58 44z m173 -28
c0 -31 -1 -31 -10 -10 -5 13 -7 28 -3 33 10 16 14 9 13 -23z m-619 6 c0 -8 -4
-12 -10 -9 -5 3 -10 10 -10 16 0 5 5 9 10 9 6 0 10 -7 10 -16z m-200 -25 c0
-6 -4 -7 -10 -4 -5 3 -10 11 -10 16 0 6 5 7 10 4 6 -3 10 -11 10 -16z m-71
-77 c-1 -44 -3 -51 -9 -32 -12 37 -12 102 0 95 6 -3 10 -32 9 -63z m501 54 c0
-3 -4 -8 -10 -11 -5 -3 -10 -1 -10 4 0 6 5 11 10 11 6 0 10 -2 10 -4z m-653
-103 c-3 -10 -5 -4 -5 12 0 17 2 24 5 18 2 -7 2 -21 0 -30z m200 -10 c-3 -10
-5 -2 -5 17 0 19 2 27 5 18 2 -10 2 -26 0 -35z m240 15 c-3 -7 -5 -2 -5 12 0
14 2 19 5 13 2 -7 2 -19 0 -25z m-42 2 c3 -5 1 -10 -4 -10 -6 0 -11 5 -11 10
0 6 2 10 4 10 3 0 8 -4 11 -10z m511 -32 c-15 -10 -16 -6 -9 22 6 22 7 22 13
4 4 -10 2 -22 -4 -26z m-159 -30 c-3 -8 -6 -5 -6 6 -1 11 2 17 5 13 3 -3 4
-12 1 -19z m-824 -51 c3 -7 -3 -13 -14 -13 -13 0 -15 3 -7 13 6 7 12 13 13 13
2 0 5 -6 8 -13z m87 3 c0 -5 -4 -10 -10 -10 -5 0 -10 5 -10 10 0 6 5 10 10 10
6 0 10 -4 10 -10z"/>
<path d="M3948 3113 c6 -2 18 -2 25 0 6 3 1 5 -13 5 -14 0 -19 -2 -12 -5z"/>
<path d="M4050 3086 c0 -4 7 -14 15 -22 8 -9 15 -11 15 -6 0 5 -7 15 -15 22
-8 7 -15 9 -15 6z"/>
<path d="M4200 3081 c0 -6 5 -13 10 -16 6 -3 10 1 10 9 0 9 -4 16 -10 16 -5 0
-10 -4 -10 -9z"/>
<path d="M4140 3070 c0 -5 4 -10 9 -10 6 0 13 5 16 10 3 6 -1 10 -9 10 -9 0
-16 -4 -16 -10z"/>
<path d="M3706 2980 c-8 -16 -10 -30 -5 -30 5 0 9 6 10 13 0 6 4 3 9 -8 6 -15
7 -11 7 18 -1 20 -2 37 -3 37 -2 0 -9 -13 -18 -30z"/>
<path d="M3985 2959 c15 -7 12 -8 -15 -4 -28 4 -32 3 -17 -6 10 -6 27 -9 37
-6 11 3 21 0 24 -7 2 -6 5 -4 5 5 1 17 -19 30 -42 28 -7 0 -3 -5 8 -10z"/>
<path d="M3702 2915 c12 -14 24 -22 27 -19 3 4 0 9 -6 11 -7 3 -13 11 -13 19
0 8 -7 14 -15 14 -11 0 -10 -6 7 -25z"/>
<path d="M3755 2870 c3 -5 8 -10 11 -10 2 0 4 5 4 10 0 6 -5 10 -11 10 -5 0
-7 -4 -4 -10z"/>
<path d="M4026 2825 c4 -8 11 -15 16 -15 6 0 5 6 -2 15 -7 8 -14 15 -16 15 -2
0 -1 -7 2 -15z"/>
<path d="M3891 2783 c-7 -8 -11 -16 -8 -19 2 -2 10 2 17 11 17 20 9 27 -9 8z"/>
<path d="M3905 2761 c-3 -5 -1 -12 5 -16 5 -3 10 1 10 9 0 18 -6 21 -15 7z"/>
<path d="M4175 2760 c3 -5 8 -10 11 -10 2 0 4 5 4 10 0 6 -5 10 -11 10 -5 0
-7 -4 -4 -10z"/>
<path d="M3840 2605 c0 -8 2 -15 4 -15 2 0 6 7 10 15 3 8 1 15 -4 15 -6 0 -10
-7 -10 -15z"/>
<path d="M3870 2610 c0 -5 5 -10 10 -10 6 0 10 5 10 10 0 6 -4 10 -10 10 -5 0
-10 -4 -10 -10z"/>
<path d="M3500 4978 c0 -9 5 -20 10 -23 13 -8 13 5 0 25 -8 13 -10 13 -10 -2z"/>
<path d="M4990 4981 c0 -5 5 -13 10 -16 6 -3 10 -17 10 -29 0 -23 25 -54 36
-44 5 6 -24 65 -43 86 -7 7 -13 9 -13 3z"/>
<path d="M2980 4954 c0 -14 4 -23 9 -20 5 3 7 15 4 26 -7 28 -13 25 -13 -6z"/>
<path d="M4050 4976 c0 -2 7 -6 15 -10 8 -3 15 -1 15 4 0 6 -7 10 -15 10 -8 0
-15 -2 -15 -4z"/>
<path d="M4541 4944 c0 -11 3 -14 6 -6 3 7 2 16 -1 19 -3 4 -6 -2 -5 -13z"/>
<path d="M4643 4920 c0 -25 2 -35 4 -22 2 12 2 32 0 45 -2 12 -4 2 -4 -23z"/>
<path d="M2045 4939 c-11 -17 1 -21 15 -4 8 9 8 15 2 15 -6 0 -14 -5 -17 -11z"/>
<path d="M2963 4903 c1 -18 5 -33 10 -33 10 0 9 32 -3 50 -7 11 -9 6 -7 -17z"/>
<path d="M4981 4914 c0 -11 3 -14 6 -6 3 7 2 16 -1 19 -3 4 -6 -2 -5 -13z"/>
<path d="M4290 4905 c-7 -9 -10 -18 -6 -22 3 -3 6 -1 6 5 0 7 9 12 21 12 11 0
17 5 14 10 -9 14 -21 12 -35 -5z"/>
<path d="M5162 4900 c-18 -30 -14 -36 8 -12 21 22 25 32 12 32 -4 0 -13 -9
-20 -20z"/>
<path d="M4330 4879 c0 -5 5 -7 10 -4 6 3 10 8 10 11 0 2 -4 4 -10 4 -5 0 -10
-5 -10 -11z"/>
<path d="M5180 4870 c-6 -12 -9 -24 -7 -27 3 -2 11 5 17 17 6 12 9 24 7 27 -3
2 -11 -5 -17 -17z"/>
<path d="M5061 4865 c0 -11 4 -27 9 -35 9 -13 10 -13 9 0 0 8 -4 24 -9 35 l-9
20 0 -20z"/>
<path d="M3300 4855 c-10 -12 -10 -20 -1 -38 7 -13 10 -15 6 -4 -3 10 0 27 5
38 13 23 7 25 -10 4z"/>
<path d="M3340 4861 c0 -6 4 -11 9 -11 5 0 12 -8 14 -17 4 -15 5 -15 6 -2 0 9
-6 22 -14 29 -10 9 -15 9 -15 1z"/>
<path d="M4280 4862 c0 -12 19 -26 26 -19 2 2 -2 10 -11 17 -9 8 -15 8 -15 2z"/>
<path d="M2967 4853 c-4 -3 -7 -20 -6 -37 l1 -31 8 35 c9 36 8 45 -3 33z"/>
<path d="M4977 4853 c-4 -3 -7 -16 -7 -28 0 -11 -6 -27 -12 -34 -9 -9 -9 -12
-1 -7 6 3 13 0 16 -6 2 -8 8 -9 13 -4 5 5 4 10 -2 13 -13 5 -6 55 10 65 8 6 8
8 0 8 -6 0 -14 -3 -17 -7z"/>
<path d="M5020 4838 c0 -4 4 -8 9 -8 6 0 12 4 15 8 3 5 -1 9 -9 9 -8 0 -15 -4
-15 -9z"/>
<path d="M5191 4824 c0 -11 3 -14 6 -6 3 7 2 16 -1 19 -3 4 -6 -2 -5 -13z"/>
<path d="M5160 4810 c0 -5 5 -10 11 -10 5 0 7 5 4 10 -3 6 -8 10 -11 10 -2 0
-4 -4 -4 -10z"/>
<path d="M5210 4776 c0 -17 4 -25 11 -21 6 4 16 -1 23 -10 10 -14 12 -12 12
19 0 20 -4 36 -8 36 -4 0 -8 -5 -8 -11 0 -8 -5 -8 -15 1 -13 11 -15 8 -15 -14z"/>
<path d="M3689 4788 c-5 -18 -3 -78 3 -78 4 0 8 18 8 40 0 22 -2 40 -5 40 -3
0 -5 -1 -6 -2z"/>
<path d="M5083 4773 c-16 -10 -23 -12 -23 -4 0 7 -4 9 -10 6 -5 -3 -10 -11
-10 -16 0 -6 5 -7 10 -4 6 3 10 1 10 -6 0 -10 3 -10 12 -1 19 19 28 14 28 -17
0 -17 5 -33 10 -36 6 -3 10 3 10 14 0 10 3 28 6 38 5 15 4 15 -5 3 -9 -13 -11
-13 -12 0 -1 8 -1 21 0 28 2 15 1 15 -26 -5z"/>
<path d="M5160 4765 c7 -8 19 -15 27 -15 12 0 12 2 -1 15 -8 8 -20 15 -27 15
-9 0 -8 -4 1 -15z"/>
<path d="M5272 4760 c0 -14 2 -19 5 -12 2 6 2 18 0 25 -3 6 -5 1 -5 -13z"/>
<path d="M2956 4724 c-4 -9 -4 -19 -1 -22 3 -3 5 0 5 7 0 8 6 11 16 7 14 -5
15 -4 4 9 -16 19 -16 19 -24 -1z"/>
<path d="M5220 4730 c0 -5 5 -10 11 -10 5 0 7 5 4 10 -3 6 -8 10 -11 10 -2 0
-4 -4 -4 -10z"/>
<path d="M4970 4718 c0 -5 7 -8 15 -4 8 3 15 1 15 -3 0 -5 -6 -12 -12 -14 -7
-3 -8 -6 -3 -6 15 -1 40 17 34 24 -12 11 -49 14 -49 3z"/>
<path d="M4677 4709 c7 -7 15 -10 18 -7 3 3 -2 9 -12 12 -14 6 -15 5 -6 -5z"/>
<path d="M5190 4698 c-8 -12 -23 -29 -32 -39 -16 -16 -15 -17 10 -15 19 2 27
9 27 22 1 11 6 18 13 17 14 -3 15 6 4 24 -6 9 -12 7 -22 -9z"/>
<path d="M5238 4708 c-9 -6 -5 -7 10 -3 32 9 30 -29 -3 -51 -14 -9 -24 -24
-24 -33 1 -13 2 -13 6 2 2 9 8 15 13 12 5 -3 7 -12 4 -19 -3 -8 -1 -17 4 -20
5 -3 12 11 15 32 4 20 16 45 27 54 11 10 20 22 20 26 0 11 -56 11 -72 0z"/>
<path d="M5346 4696 c3 -13 1 -33 -5 -45 -10 -17 -9 -20 4 -15 17 7 22 84 5
84 -6 0 -8 -10 -4 -24z"/>
<path d="M4643 4695 c0 -7 6 -11 14 -8 7 3 13 6 13 8 0 2 -6 5 -13 8 -8 3 -14
-1 -14 -8z"/>
<path d="M4420 4693 c-8 -3 -18 -10 -21 -16 -4 -5 -47 -13 -95 -18 l-89 -7 85
2 c67 2 93 7 120 24 33 21 33 27 0 15z"/>
<path d="M4948 4694 c-5 -4 -8 -16 -8 -28 0 -14 3 -17 11 -9 6 6 9 19 7 28 -1
9 -6 13 -10 9z"/>
<path d="M5306 4684 c-3 -9 -6 -33 -6 -55 0 -29 -4 -39 -16 -39 -9 0 -12 -5
-8 -11 5 -9 -1 -10 -20 -5 -15 4 -26 2 -26 -4 0 -5 11 -10 25 -10 29 0 60 31
61 63 1 12 4 34 9 50 8 29 -8 39 -19 11z"/>
<path d="M3175 4680 c3 -5 8 -10 11 -10 2 0 4 5 4 10 0 6 -5 10 -11 10 -5 0
-7 -4 -4 -10z"/>
<path d="M4824 4675 c-10 -8 -14 -15 -8 -15 6 0 17 7 24 15 16 19 9 19 -16 0z"/>
<path d="M5021 4680 c0 -8 4 -22 9 -30 12 -18 12 -2 0 25 -6 13 -9 15 -9 5z"/>
<path d="M3200 4670 c0 -5 12 -12 28 -16 15 -3 36 -10 48 -16 11 -5 36 -8 55
-5 32 4 31 4 -8 5 -24 1 -43 7 -43 12 0 6 -11 10 -24 10 -14 0 -28 5 -31 10
-8 13 -25 13 -25 0z"/>
<path d="M4671 4664 c0 -11 3 -14 6 -6 3 7 2 16 -1 19 -3 4 -6 -2 -5 -13z"/>
<path d="M4688 4657 c-3 -19 -2 -25 4 -19 6 6 8 18 6 28 -3 14 -5 12 -10 -9z"/>
<path d="M3027 4650 c3 -10 11 -24 19 -31 10 -8 10 -3 -2 20 -18 35 -24 40
-17 11z"/>
<path d="M5001 4643 c-1 -23 3 -33 14 -33 8 0 15 5 15 10 0 6 -4 10 -9 10 -5
0 -12 10 -14 23 -3 16 -5 13 -6 -10z"/>
<path d="M5085 4648 c2 -13 -4 -18 -23 -18 -21 0 -23 -3 -14 -12 10 -10 17
-10 32 0 12 7 21 8 25 2 3 -6 14 -10 23 -10 14 1 13 3 -4 13 -12 7 -19 19 -17
27 4 12 3 13 -5 1 -9 -12 -11 -12 -15 0 -2 8 -3 6 -2 -3z"/>
<path d="M4780 4640 c-13 -8 -13 -11 -1 -22 9 -8 11 -9 7 -1 -3 6 -2 14 3 17
5 4 12 -2 14 -11 4 -16 5 -16 6 -1 1 22 -11 29 -29 18z"/>
<path d="M5439 4645 c-1 -3 -2 -9 -3 -14 0 -5 -4 -13 -8 -17 -5 -4 -8 -19 -7
-33 1 -24 2 -23 10 7 5 17 14 32 19 32 6 0 10 7 10 15 0 14 -18 22 -21 10z"/>
<path d="M5378 4628 c7 -7 12 -23 13 -37 0 -15 4 -35 9 -46 6 -14 8 -8 5 22
-3 23 0 45 5 48 6 3 10 11 10 17 0 7 -6 6 -15 -2 -10 -9 -15 -9 -15 -1 0 6 -5
11 -12 11 -9 0 -9 -3 0 -12z"/>
<path d="M5170 4621 c0 -13 12 -20 26 -14 20 8 17 19 -6 20 -11 1 -20 -2 -20
-6z"/>
<path d="M5350 4610 c0 -5 5 -12 11 -16 7 -4 9 -21 5 -43 -4 -25 -2 -31 4 -21
15 24 12 77 -5 84 -8 3 -15 1 -15 -4z"/>
<path d="M4750 4599 c0 -5 5 -7 10 -4 6 3 10 8 10 11 0 2 -4 4 -10 4 -5 0 -10
-5 -10 -11z"/>
<path d="M4925 4601 c3 -5 1 -12 -5 -16 -5 -3 -10 -17 -10 -31 0 -13 -4 -24
-10 -24 -5 0 -10 -6 -10 -12 0 -7 -7 -26 -15 -42 -9 -16 -13 -31 -10 -34 3 -3
5 0 5 7 0 7 5 9 10 6 6 -4 10 6 10 22 0 23 2 25 11 13 9 -13 10 -12 5 2 -3 10
-1 20 4 23 6 4 10 17 10 30 0 13 5 27 10 30 13 8 13 35 -1 35 -5 0 -8 -4 -4
-9z"/>
<path d="M2920 4590 c0 -5 5 -10 10 -10 6 0 10 5 10 10 0 6 -4 10 -10 10 -5 0
-10 -4 -10 -10z"/>
<path d="M5193 4586 c-10 -11 -9 -15 4 -20 9 -4 18 -4 21 -1 3 3 0 5 -6 5 -6
0 -9 7 -6 15 7 18 3 19 -13 1z"/>
<path d="M5320 4579 c0 -11 5 -17 10 -14 6 3 10 13 10 21 0 8 -4 14 -10 14 -5
0 -10 -9 -10 -21z"/>
<path d="M4980 4550 c0 -22 -4 -40 -9 -40 -5 0 -12 -18 -16 -40 -4 -22 -10
-40 -15 -40 -4 0 -10 -9 -13 -19 -3 -14 -1 -18 9 -14 8 3 14 10 14 16 0 6 12
25 28 41 22 25 22 27 3 11 l-24 -20 8 25 c4 14 12 28 17 31 11 7 17 89 6 89
-4 0 -8 -18 -8 -40z"/>
<path d="M4766 4565 c-3 -8 -1 -15 4 -15 6 0 10 7 10 15 0 8 -2 15 -4 15 -2 0
-6 -7 -10 -15z"/>
<path d="M5108 4573 c6 -2 18 -2 25 0 6 3 1 5 -13 5 -14 0 -19 -2 -12 -5z"/>
<path d="M2910 4553 c0 -10 -3 -36 -7 -57 -4 -29 -3 -37 6 -32 6 4 9 11 7 15
-3 4 3 8 12 8 19 0 44 -22 35 -31 -3 -3 -12 2 -20 12 -14 16 -14 16 -9 -1 3
-10 6 -28 7 -40 0 -15 2 -17 6 -7 4 8 15 22 26 31 l21 16 -22 23 c-12 13 -22
34 -22 46 0 13 -4 25 -8 28 -5 3 -7 -9 -5 -27 l3 -32 -10 33 c-12 35 -20 42
-20 15z"/>
<path d="M3070 4559 c0 -5 5 -7 10 -4 6 3 10 8 10 11 0 2 -4 4 -10 4 -5 0 -10
-5 -10 -11z"/>
<path d="M4245 4560 c3 -5 24 -10 46 -10 24 0 38 4 34 10 -3 6 -24 10 -46 10
-24 0 -38 -4 -34 -10z"/>
<path d="M4783 4505 c0 -22 2 -30 4 -17 2 12 2 30 0 40 -3 9 -5 -1 -4 -23z"/>
<path d="M3011 4503 c-1 -14 5 -23 14 -23 9 0 15 9 15 23 0 16 -3 18 -9 8 -7
-11 -9 -11 -14 0 -3 8 -6 4 -6 -8z"/>
<path d="M5030 4488 c0 -9 -6 -19 -12 -21 -10 -4 -10 -6 0 -6 14 -1 28 26 18
36 -3 4 -6 -1 -6 -9z"/>
<path d="M5553 4448 c-23 -30 -26 -41 -11 -35 9 3 20 1 26 -5 12 -12 32 -2 32
15 0 7 -4 6 -10 -3 -9 -13 -11 -13 -19 -1 -5 8 -7 20 -4 28 6 16 -1 17 -14 1z"/>
<path d="M3358 4433 c7 -3 16 -2 19 1 4 3 -2 6 -13 5 -11 0 -14 -3 -6 -6z"/>
<path d="M4990 4424 c0 -12 -16 -38 -35 -57 -37 -37 -49 -63 -15 -32 11 10 23
15 27 11 4 -4 1 -11 -7 -16 -12 -8 -9 -10 11 -10 24 0 29 5 57 63 2 4 0 7 -5
7 -4 0 -14 -14 -22 -31 -10 -23 -16 -28 -22 -18 -12 20 -11 23 11 47 16 17 18
26 11 40 -9 15 -10 15 -11 -4z"/>
<path d="M5020 4434 c0 -6 7 -19 16 -30 14 -18 14 -18 3 6 -14 31 -19 36 -19
24z"/>
<path d="M5440 4430 c0 -5 5 -10 11 -10 5 0 7 5 4 10 -3 6 -8 10 -11 10 -2 0
-4 -4 -4 -10z"/>
<path d="M4618 4400 c-3 -16 -1 -30 4 -30 4 0 8 14 8 30 0 17 -2 30 -4 30 -2
0 -6 -13 -8 -30z"/>
<path d="M4850 4409 c0 -11 -4 -17 -10 -14 -5 3 -10 0 -10 -8 0 -8 -7 -20 -15
-27 -8 -7 -15 -17 -15 -23 0 -5 13 6 30 24 26 29 40 69 25 69 -3 0 -5 -9 -5
-21z"/>
<path d="M5070 4378 c0 -12 -7 -30 -17 -40 -9 -10 -11 -18 -5 -18 6 0 16 9 22
20 7 12 16 18 23 13 7 -4 6 1 -2 11 -13 15 -13 19 0 27 11 7 11 9 -3 9 -12 0
-18 -8 -18 -22z"/>
<path d="M5420 4391 c8 -6 18 -7 24 -4 5 4 6 1 1 -6 -4 -8 -17 -10 -31 -7 -15
4 -24 2 -24 -5 0 -6 -7 -8 -17 -5 -10 4 -14 4 -10 -1 16 -15 78 -10 87 7 11
21 4 30 -24 30 -17 0 -18 -2 -6 -9z"/>
<path d="M5466 4351 c-34 -34 -44 -51 -35 -56 7 -5 10 -4 5 3 -3 6 15 28 41
51 26 22 45 42 42 45 -3 3 -27 -16 -53 -43z"/>
<path d="M4900 4365 c0 -8 2 -15 4 -15 2 0 6 7 10 15 3 8 1 15 -4 15 -6 0 -10
-7 -10 -15z"/>
<path d="M5111 4364 c0 -11 3 -14 6 -6 3 7 2 16 -1 19 -3 4 -6 -2 -5 -13z"/>
<path d="M4610 4350 c-8 -5 -12 -11 -9 -14 2 -3 11 -1 19 4 8 5 12 11 9 14 -2
3 -11 1 -19 -4z"/>
<path d="M4881 4352 c-1 -13 -82 -95 -183 -187 l-48 -43 43 11 c23 6 44 14 47
17 3 4 14 9 25 12 18 3 18 4 3 10 -10 4 -23 1 -32 -7 -7 -8 -16 -11 -20 -8 -3
3 16 26 42 50 76 72 76 71 69 43 -4 -14 -4 -19 -1 -12 3 6 10 9 16 6 6 -4 6 1
-1 14 -8 16 -6 23 11 38 19 17 21 17 15 2 -3 -10 -2 -20 2 -22 5 -3 8 5 7 17
-1 12 4 24 10 27 7 3 8 13 3 25 -4 11 -8 14 -8 7z"/>
<path d="M5127 4340 c-9 -11 -13 -20 -8 -20 11 0 35 29 29 35 -2 2 -12 -4 -21
-15z"/>
<path d="M5390 4335 c-11 -13 -15 -13 -21 -3 -7 10 -9 10 -10 -2 -1 -8 -1 -18
-1 -21 0 -3 -14 -13 -31 -22 -18 -10 -38 -27 -45 -37 -8 -14 1 -10 33 13 68
48 111 86 99 87 -6 0 -17 -7 -24 -15z"/>
<path d="M5482 4337 c-8 -10 -6 -13 7 -13 11 0 17 6 14 13 -3 7 -6 13 -8 13
-1 0 -7 -6 -13 -13z"/>
<path d="M3623 4285 c-1 -33 1 -52 4 -42 2 9 9 17 15 17 7 0 7 4 0 13 -6 6
-12 26 -15 42 -2 17 -4 3 -4 -30z"/>
<path d="M5191 4324 c0 -11 3 -14 6 -6 3 7 2 16 -1 19 -3 4 -6 -2 -5 -13z"/>
<path d="M4776 4304 c-5 -14 -4 -15 9 -4 17 14 19 20 6 20 -5 0 -12 -7 -15
-16z"/>
<path d="M5287 4303 c7 -17 18 -16 32 1 10 11 7 14 -12 12 -15 0 -23 -6 -20
-13z"/>
<path d="M5170 4290 c0 -5 7 -10 16 -10 8 0 12 5 9 10 -3 6 -10 10 -16 10 -5
0 -9 -4 -9 -10z"/>
<path d="M5391 4287 c-9 -11 -8 -17 4 -27 9 -7 18 -10 22 -7 3 4 -2 10 -11 13
-14 5 -15 9 -5 15 8 4 11 11 8 14 -4 3 -11 -1 -18 -8z"/>
<path d="M2859 4273 c-13 -16 -12 -17 4 -4 16 13 21 21 13 21 -2 0 -10 -8 -17
-17z"/>
<path d="M5120 4279 c0 -5 9 -9 20 -9 11 0 20 2 20 4 0 2 -9 6 -20 9 -11 3
-20 1 -20 -4z"/>
<path d="M3930 4255 c47 -7 114 -13 150 -13 l65 1 -75 8 c-41 5 -109 10 -150
13 l-75 5 85 -14z"/>
<path d="M4858 4258 c8 -9 11 -22 7 -28 -3 -5 -1 -10 4 -10 17 0 13 26 -6 41
-16 13 -17 12 -5 -3z"/>
<path d="M5352 4257 c-8 -9 -8 -17 0 -27 8 -12 9 -11 4 4 -5 13 -2 17 8 13 10
-4 13 -1 9 9 -6 17 -8 17 -21 1z"/>
<path d="M5135 4240 c-18 -8 -17 -9 8 -9 15 -1 27 4 27 9 0 12 -8 12 -35 0z"/>
<path d="M5195 4230 c-18 -8 -18 -9 -2 -9 10 -1 16 -5 13 -10 -4 -5 7 -4 24 2
20 7 25 14 17 19 -15 9 -26 9 -52 -2z"/>
<path d="M4507 4198 c-30 -28 -19 -30 13 -2 17 14 31 13 70 -4 14 -6 19 -11
12 -11 -7 -1 -10 -6 -7 -11 9 -14 27 -1 23 17 -2 8 -20 21 -41 28 -37 13 -40
12 -70 -17z"/>
<path d="M4790 4210 c0 -5 7 -7 15 -4 8 4 15 1 15 -5 0 -6 -7 -11 -15 -11 -8
0 -15 -4 -15 -10 0 -13 2 -12 37 1 27 10 27 11 9 25 -23 16 -46 18 -46 4z"/>
<path d="M5130 4210 c0 -5 5 -10 10 -10 6 0 10 5 10 10 0 6 -4 10 -10 10 -5 0
-10 -4 -10 -10z"/>
<path d="M5290 4206 c-6 -8 -18 -12 -26 -9 -8 3 -14 3 -14 0 0 -15 31 -13 46
4 9 10 15 19 12 19 -3 0 -11 -6 -18 -14z"/>
<path d="M5156 4195 c-11 -8 -15 -15 -9 -15 19 0 43 12 43 21 0 13 -12 11 -34
-6z"/>
<path d="M4535 4190 c-3 -5 -1 -10 4 -10 6 0 11 5 11 10 0 6 -2 10 -4 10 -3 0
-8 -4 -11 -10z"/>
<path d="M4560 4180 c0 -5 5 -10 11 -10 5 0 7 5 4 10 -3 6 -8 10 -11 10 -2 0
-4 -4 -4 -10z"/>
<path d="M5112 4164 c-7 -8 -8 -14 -3 -14 10 0 25 19 20 25 -2 1 -10 -3 -17
-11z"/>
<path d="M5210 4170 c-8 -5 -10 -10 -5 -10 6 0 17 5 25 10 8 5 11 10 5 10 -5
0 -17 -5 -25 -10z"/>
<path d="M4835 4150 c-10 -11 -16 -22 -14 -24 2 -3 14 6 26 20 12 13 18 24 14
24 -4 0 -16 -9 -26 -20z"/>
<path d="M4431 4116 c-28 -29 -39 -46 -31 -51 6 -4 14 -4 17 -1 4 3 0 6 -7 6
-7 0 -1 11 14 25 31 29 41 32 32 10 -4 -13 -2 -14 14 -5 19 10 28 23 13 18 -8
-3 -13 5 -13 23 0 5 5 7 12 3 7 -4 8 -3 4 4 -10 16 -6 18 -55 -32z"/>
<path d="M4566 4151 c-4 -6 -21 -15 -39 -20 -24 -7 -26 -9 -10 -10 12 -1 23
-7 26 -13 3 -9 12 -6 28 9 17 17 20 26 12 34 -8 8 -13 8 -17 0z m9 -20 c-3 -6
-14 -11 -23 -11 -13 0 -13 2 4 14 21 15 30 14 19 -3z"/>
<path d="M5060 4140 c-8 -5 -26 -7 -40 -4 -24 4 -24 4 -4 -7 17 -8 28 -7 50 5
16 8 25 15 19 15 -5 1 -17 -4 -25 -9z"/>
<path d="M4855 4131 c-3 -5 -1 -12 5 -16 5 -3 10 1 10 9 0 18 -6 21 -15 7z"/>
<path d="M4960 4132 c0 -4 11 -12 25 -19 14 -6 25 -8 25 -4 0 4 -11 13 -25 19
-14 6 -25 8 -25 4z"/>
<path d="M4795 4110 c3 -5 8 -10 11 -10 2 0 4 5 4 10 0 6 -5 10 -11 10 -5 0
-7 -4 -4 -10z"/>
<path d="M5080 4110 c-8 -5 -10 -10 -5 -10 6 0 17 5 25 10 8 5 11 10 5 10 -5
0 -17 -5 -25 -10z"/>
<path d="M4825 4100 c-3 -5 -3 -14 0 -20 8 -12 32 -13 39 -1 4 5 -3 7 -14 4
-16 -4 -19 -2 -14 11 7 18 -1 22 -11 6z"/>
<path d="M4965 4100 c8 -13 -30 -31 -52 -24 -15 5 -16 4 -3 -6 12 -9 9 -11
-15 -6 -16 3 -24 3 -17 0 6 -3 12 -10 12 -15 0 -12 -27 -12 -32 1 -4 13 -50
-11 -56 -30 -4 -11 0 -10 13 3 12 12 26 16 44 13 33 -7 144 57 116 67 -9 4
-13 3 -10 -3z"/>
<path d="M4720 4090 c0 -6 -8 -10 -17 -10 -26 -1 -161 -49 -138 -49 37 0 190
55 172 62 -9 3 -17 2 -17 -3z"/>
<path d="M4760 4089 c0 -5 5 -7 10 -4 6 3 10 8 10 11 0 2 -4 4 -10 4 -5 0 -10
-5 -10 -11z"/>
<path d="M5009 4070 c-13 -10 -19 -19 -12 -20 6 0 14 6 16 13 4 9 8 8 17 -3
10 -13 11 -13 7 2 -3 9 -1 19 6 22 8 3 9 5 1 5 -7 1 -22 -8 -35 -19z"/>
<path d="M4800 4070 c0 -5 5 -10 11 -10 5 0 7 5 4 10 -3 6 -8 10 -11 10 -2 0
-4 -4 -4 -10z"/>
<path d="M4328 4035 c-40 -28 -44 -34 -28 -38 11 -3 18 -1 15 4 -3 4 10 19 29
31 20 13 36 26 36 31 0 10 1 10 -52 -28z"/>
<path d="M4692 4038 c2 -6 10 -14 16 -16 7 -2 10 2 6 12 -7 18 -28 22 -22 4z"/>
<path d="M4925 4026 c-59 -32 -82 -49 -106 -82 -21 -27 -19 -26 14 5 41 38 50
32 15 -8 l-23 -26 28 25 c15 13 25 30 22 37 -2 8 3 16 13 19 9 3 30 12 45 21
15 8 35 12 43 9 10 -4 14 -1 12 6 -6 18 -20 17 -63 -6z"/>
<path d="M4615 4027 c-14 -11 -15 -16 -5 -22 9 -5 11 -4 6 3 -4 7 -1 12 8 12
9 0 16 -3 16 -7 0 -5 17 -9 37 -10 21 -1 43 -9 49 -18 9 -12 13 -13 17 -3 4
10 8 10 16 -2 5 -8 13 -11 18 -7 9 10 -18 28 -34 22 -6 -2 -13 1 -15 6 -2 6
-23 13 -48 16 -34 5 -40 8 -25 14 19 7 19 8 -1 8 -11 1 -28 -5 -39 -12z"/>
<path d="M4518 4023 c7 -3 16 -2 19 1 4 3 -2 6 -13 5 -11 0 -14 -3 -6 -6z"/>
<path d="M4830 4015 c-8 -9 -8 -15 -2 -15 12 0 26 19 19 26 -2 2 -10 -2 -17
-11z"/>
<path d="M4450 4010 c0 -5 5 -10 10 -10 6 0 10 5 10 10 0 6 -4 10 -10 10 -5 0
-10 -4 -10 -10z"/>
<path d="M4224 3983 c-12 -4 -3 -77 11 -91 3 -4 4 5 0 21 -5 17 -2 33 5 43 14
16 3 34 -16 27z"/>
<path d="M4781 3955 c-17 -20 -31 -43 -31 -53 0 -13 -2 -14 -9 -4 -7 11 -9 10
-14 -3 -4 -9 -3 -13 3 -10 6 3 10 -2 11 -12 0 -10 7 0 16 22 9 22 19 42 22 45
3 3 15 15 25 28 31 36 11 25 -23 -13z"/>
<path d="M4720 3955 c0 -5 4 -15 8 -22 6 -9 11 -7 20 7 7 12 8 20 2 20 -5 0
-10 -6 -10 -12 0 -9 -4 -8 -10 2 -5 8 -10 11 -10 5z"/>
<path d="M3730 3931 c0 -5 9 -7 20 -4 11 3 20 7 20 9 0 2 -9 4 -20 4 -11 0
-20 -4 -20 -9z"/>
<path d="M4782 3871 c-7 -21 -11 -56 -11 -77 1 -37 2 -37 9 11 4 28 11 62 15
78 11 42 0 32 -13 -12z"/>
<path d="M4222 3850 c0 -14 2 -19 5 -12 2 6 2 18 0 25 -3 6 -5 1 -5 -13z"/>
<path d="M5400 3800 c0 -33 3 -40 20 -40 17 0 20 7 20 40 0 33 -3 40 -20 40
-17 0 -20 -7 -20 -40z"/>
<path d="M3362 3797 c-18 -18 -32 -38 -32 -45 0 -7 -4 -12 -9 -12 -5 0 -17
-12 -26 -27 l-18 -28 29 25 c16 14 41 32 56 40 22 10 25 16 16 27 -8 10 -6 18
7 33 30 33 11 22 -23 -13z m8 -26 c0 -5 -7 -12 -16 -15 -14 -5 -15 -4 -4 9 14
17 20 19 20 6z"/>
<path d="M3675 3790 c3 -5 8 -10 11 -10 2 0 4 5 4 10 0 6 -5 10 -11 10 -5 0
-7 -4 -4 -10z"/>
<path d="M4731 3764 c0 -11 3 -14 6 -6 3 7 2 16 -1 19 -3 4 -6 -2 -5 -13z"/>
<path d="M3647 3753 c-4 -3 -7 -13 -7 -22 1 -13 3 -13 11 2 11 19 8 33 -4 20z"/>
<path d="M4338 3753 c12 -2 32 -2 45 0 12 2 2 4 -23 4 -25 0 -35 -2 -22 -4z"/>
<path d="M4410 3746 c0 -3 9 -10 20 -16 11 -6 20 -8 20 -6 0 3 -9 10 -20 16
-11 6 -20 8 -20 6z"/>
<path d="M4780 3735 c0 -8 4 -15 10 -15 5 0 7 7 4 15 -4 8 -8 15 -10 15 -2 0
-4 -7 -4 -15z"/>
<path d="M4733 3700 c2 -8 8 -15 13 -15 18 0 34 -17 28 -27 -5 -7 -1 -9 9 -5
9 3 18 1 20 -6 2 -7 7 -9 11 -6 3 3 -10 20 -29 38 -19 17 -35 26 -35 19 0 -9
-3 -9 -11 2 -9 13 -10 13 -6 0z"/>
<path d="M4800 3706 c0 -2 7 -7 16 -10 8 -3 12 -2 9 4 -6 10 -25 14 -25 6z"/>
<path d="M3651 3674 c0 -11 3 -14 6 -6 3 7 2 16 -1 19 -3 4 -6 -2 -5 -13z"/>
<path d="M3258 3641 c-9 -20 -19 -47 -23 -61 -4 -14 -11 -29 -15 -35 -5 -5
-13 -32 -19 -60 -5 -27 -15 -70 -20 -95 -6 -25 -10 -61 -9 -80 0 -22 5 -7 13
40 17 97 45 195 82 278 8 18 13 37 11 41 -2 5 -10 -8 -20 -28z"/>
<path d="M4482 3655 c0 -16 2 -22 5 -12 2 9 2 23 0 30 -3 6 -5 -1 -5 -18z"/>
<path d="M4830 3677 c0 -2 6 -10 14 -16 11 -9 16 -9 22 1 4 7 4 10 -1 6 -4 -4
-14 -3 -22 3 -7 6 -13 9 -13 6z"/>
<path d="M4058 3653 c7 -3 16 -2 19 1 4 3 -2 6 -13 5 -11 0 -14 -3 -6 -6z"/>
<path d="M4763 3621 c16 -10 28 -21 28 -25 -3 -23 1 -28 10 -13 6 9 14 15 20
12 5 -4 9 -1 9 5 0 6 5 8 12 4 7 -4 8 -3 4 4 -5 8 -13 9 -24 3 -13 -7 -25 -4
-42 10 -14 10 -29 19 -35 19 -5 0 3 -9 18 -19z"/>
<path d="M4217 3604 c-13 -18 -14 -22 -3 -18 8 3 17 13 20 21 10 25 3 23 -17
-3z"/>
<path d="M4935 3601 c-3 -6 -14 -8 -25 -6 -17 3 -19 1 -10 -16 13 -23 22 -25
13 -2 -4 10 -2 14 4 10 5 -4 19 0 29 8 10 8 14 15 7 15 -6 0 -14 -4 -18 -9z"/>
<path d="M5283 3565 c0 -22 2 -30 4 -17 2 12 2 30 0 40 -3 9 -5 -1 -4 -23z"/>
<path d="M4805 3559 c-4 -6 -5 -12 -2 -15 2 -3 7 2 10 11 7 17 1 20 -8 4z"/>
<path d="M4850 3549 c-6 -11 -9 -25 -6 -32 3 -8 5 -8 5 2 1 11 4 11 19 0 15
-13 16 -12 3 3 -7 10 -11 25 -7 33 8 22 -2 18 -14 -6z"/>
<path d="M4953 3464 c15 -45 30 -110 34 -144 3 -37 9 -56 14 -48 4 7 3 36 -3
63 -6 28 -11 62 -12 78 -1 15 -4 27 -7 27 -8 0 -35 82 -31 96 1 6 -4 11 -10
11 -9 0 -5 -24 15 -83z"/>
<path d="M4116 3515 c-3 -8 -1 -15 3 -15 5 0 11 7 15 15 3 8 1 15 -3 15 -5 0
-11 -7 -15 -15z"/>
<path d="M4820 3513 c0 -6 4 -14 9 -17 4 -3 11 -25 15 -48 4 -23 11 -47 15
-53 13 -16 22 -77 11 -70 -6 3 -10 2 -10 -4 0 -5 5 -13 11 -16 5 -4 10 -30 9
-58 -1 -84 9 -311 16 -327 3 -8 7 -64 9 -125 3 -60 14 -220 25 -355 11 -135
20 -253 20 -263 0 -10 4 -16 9 -13 5 3 7 -16 5 -42 -2 -26 -2 -42 2 -35 3 8
12 5 25 -8 12 -12 24 -18 27 -14 4 3 0 11 -8 16 -8 6 -11 12 -5 15 13 5 12
103 -1 112 -6 4 -14 16 -17 26 -6 16 -5 17 8 6 13 -11 15 -5 14 51 0 41 -3 57
-8 44 -7 -17 -9 -16 -14 10 -3 17 -1 31 4 33 9 4 2 144 -8 172 -4 8 -7 21 -7
29 -1 18 -26 27 -26 9 0 -10 -3 -9 -10 2 -14 22 -12 33 4 27 20 -8 39 16 24
31 -9 9 -8 18 1 39 9 19 9 29 2 31 -6 2 -11 17 -11 33 0 18 -4 28 -10 24 -5
-3 -10 0 -10 9 0 8 5 16 10 18 18 6 17 234 -1 286 -5 13 -4 32 3 47 8 18 8 28
-1 38 -6 8 -10 21 -8 28 2 8 2 11 0 7 -10 -17 -23 -7 -23 17 0 14 5 25 10 25
6 0 10 7 10 15 0 8 -4 15 -10 15 -5 0 -10 12 -10 28 0 15 -5 34 -10 42 -8 11
-10 0 -8 -37 1 -29 -1 -56 -5 -60 -4 -3 -7 19 -7 50 0 31 5 59 10 62 6 3 10
14 10 23 0 12 -3 13 -8 5 -12 -19 -32 1 -37 36 -4 31 -44 108 -45 84z m114
-424 c10 -17 16 -33 13 -35 -2 -3 -14 11 -25 31 -12 19 -18 35 -14 35 4 0 16
-14 26 -31z m-30 -4 c3 -8 1 -15 -4 -15 -6 0 -10 7 -10 15 0 8 2 15 4 15 2 0
6 -7 10 -15z m49 -115 c3 -38 1 -57 -3 -45 -8 19 -14 123 -6 114 2 -2 6 -33 9
-69z m-17 -67 c14 -43 16 -57 7 -60 -7 -3 -13 -18 -13 -34 0 -17 -4 -28 -8
-25 -5 3 -5 29 -2 58 5 36 3 63 -7 85 -7 18 -9 33 -5 33 5 0 17 -25 28 -57z
m6 -251 c3 -11 0 -19 -7 -19 -7 0 -10 8 -7 19 2 10 6 18 7 18 1 0 5 -8 7 -18z
m5 -154 c-3 -8 -6 -5 -6 6 -1 11 2 17 5 13 3 -3 4 -12 1 -19z m23 -138 c6 0
10 -15 9 -32 l-1 -33 -11 32 c-7 17 -15 35 -19 39 -5 4 -8 19 -7 33 1 24 2 23
10 -6 5 -18 14 -33 19 -33z"/>
<path d="M5048 3513 c7 -3 16 -2 19 1 4 3 -2 6 -13 5 -11 0 -14 -3 -6 -6z"/>
<path d="M4060 3500 c-18 -12 -2 -12 25 0 13 6 15 9 5 9 -8 0 -22 -4 -30 -9z"/>
<path d="M4891 3494 c0 -11 3 -14 6 -6 3 7 2 16 -1 19 -3 4 -6 -2 -5 -13z"/>
<path d="M4078 3473 c6 -2 18 -2 25 0 6 3 1 5 -13 5 -14 0 -19 -2 -12 -5z"/>
<path d="M4140 3470 c0 -5 5 -10 11 -10 5 0 7 5 4 10 -3 6 -8 10 -11 10 -2 0
-4 -4 -4 -10z"/>
<path d="M4083 3453 c9 -2 25 -2 35 0 9 3 1 5 -18 5 -19 0 -27 -2 -17 -5z"/>
<path d="M4049 3442 c-1 -4 0 -18 1 -30 2 -26 -35 -72 -57 -72 -9 0 -13 -13
-13 -40 0 -29 -4 -40 -15 -40 -8 0 -15 -5 -15 -11 0 -6 9 -8 20 -4 18 6 20 2
20 -31 0 -31 2 -35 15 -24 12 10 13 16 4 26 -8 10 -8 14 0 14 6 0 11 5 11 10
0 6 -7 10 -15 10 -9 0 -15 10 -15 26 0 14 4 23 8 20 5 -3 8 5 8 17 -1 15 5 22
20 23 12 1 28 5 35 10 8 5 28 9 45 10 27 1 30 -2 26 -28 -2 -15 -7 -28 -11
-28 -4 0 -5 -15 -3 -32 5 -31 4 -32 -13 -18 -16 13 -18 13 -13 0 3 -8 13 -14
21 -14 13 1 16 -4 11 -25 -4 -20 -3 -23 5 -11 6 8 8 32 4 53 -4 25 -2 37 6 37
8 0 10 8 6 20 -5 14 -3 18 8 14 7 -2 19 1 25 9 10 12 4 17 -31 31 -23 9 -48
16 -55 16 -7 0 -12 13 -12 29 0 16 -6 31 -15 35 -8 3 -15 2 -16 -2z"/>
<path d="M4886 3441 c-4 -7 -5 -15 -2 -18 9 -9 19 4 14 18 -4 11 -6 11 -12 0z"/>
<path d="M4480 3354 c0 -8 5 -12 10 -9 6 4 8 11 5 16 -9 14 -15 11 -15 -7z"/>
<path d="M3915 3349 c-4 -5 0 -18 8 -27 8 -9 17 -26 20 -37 3 -12 5 -4 6 17 1
24 7 41 19 47 12 8 13 10 3 11 -8 0 -23 -8 -34 -17 -19 -17 -20 -17 -14 0 7
19 2 23 -8 6z"/>
<path d="M4240 3354 c0 -10 42 -45 47 -40 5 4 -1 12 -11 18 -15 8 -16 12 -5
19 10 6 7 8 -9 6 -12 0 -22 -2 -22 -3z"/>
<path d="M4057 3332 c-23 -26 -21 -39 2 -18 11 10 24 15 29 12 5 -3 15 1 22 9
8 9 8 15 2 15 -6 0 -13 -6 -15 -12 -4 -10 -6 -10 -6 0 -1 17 -15 15 -34 -6z"/>
<path d="M3850 3321 c0 -5 5 -13 10 -16 6 -3 10 -2 10 4 0 5 -4 13 -10 16 -5
3 -10 2 -10 -4z"/>
<path d="M3906 3308 c10 -14 21 -24 23 -22 3 3 -6 15 -18 27 l-24 22 19 -27z"/>
<path d="M4165 3280 c-9 -27 21 -74 42 -66 8 3 19 6 24 6 6 0 7 5 3 11 -4 8
-9 8 -17 0 -16 -16 -23 -14 -35 14 -16 34 -15 40 2 26 10 -9 15 -8 20 4 8 22
36 19 31 -4 -3 -14 2 -19 16 -18 44 3 1 47 -46 47 -25 0 -35 -5 -40 -20z"/>
<path d="M4070 3281 c0 -6 9 -9 19 -8 11 0 17 5 15 9 -7 11 -34 10 -34 -1z"/>
<path d="M3153 3225 c0 -22 2 -30 4 -17 2 12 2 30 0 40 -3 9 -5 -1 -4 -23z"/>
<path d="M3130 3119 c0 -5 5 -7 10 -4 6 3 10 8 10 11 0 2 -4 4 -10 4 -5 0 -10
-5 -10 -11z"/>
<path d="M4957 3100 c3 -11 7 -20 9 -20 2 0 4 9 4 20 0 11 -4 20 -9 20 -5 0
-7 -9 -4 -20z"/>
<path d="M2733 1863 c9 -2 23 -2 30 0 6 3 -1 5 -18 5 -16 0 -22 -2 -12 -5z"/>
<path d="M2910 1849 c72 -5 118 -5 124 1 7 7 -34 9 -114 9 l-125 -2 115 -8z"/>
<path d="M3052 1842 c-14 -9 102 -13 506 -15 155 -1 282 -5 282 -9 0 -5 17 -8
38 -8 33 1 35 2 17 12 -32 19 -815 37 -843 20z"/>
<path d="M3930 1824 c34 -7 270 -9 270 -2 0 4 -64 7 -142 7 -79 -1 -136 -3
-128 -5z"/>
<path d="M6355 3070 c-3 -5 -2 -10 4 -10 5 0 16 -3 25 -6 11 -4 16 -1 16 10 0
18 -35 22 -45 6z"/>
<path d="M6258 3043 c7 -3 16 -2 19 1 4 3 -2 6 -13 5 -11 0 -14 -3 -6 -6z"/>
<path d="M6348 2874 c-4 -3 0 -17 8 -32 8 -15 14 -32 14 -39 0 -7 10 -17 21
-24 21 -11 22 -10 15 32 -4 24 -12 49 -18 56 -11 14 -31 17 -40 7z"/>
<path d="M6205 2850 c-5 -9 33 -56 40 -48 2 2 1 15 -2 31 -5 26 -26 36 -38 17z"/>
<path d="M6305 2822 c-9 -10 -5 -20 11 -26 20 -8 35 1 28 18 -5 12 -29 17 -39
8z"/>
<path d="M6163 2805 c0 -8 4 -15 9 -15 4 0 8 4 8 9 0 6 -4 12 -8 15 -5 3 -9
-1 -9 -9z"/>
<path d="M6200 2698 c-25 -27 -23 -71 2 -76 21 -4 38 12 56 52 11 24 11 31 0
37 -21 14 -36 10 -58 -13z"/>
<path d="M6353 2682 c-6 -4 -11 -22 -11 -40 1 -42 31 -41 36 2 4 32 -7 49 -25
38z"/>
<path d="M6403 2655 c0 -22 2 -30 4 -17 2 12 2 30 0 40 -3 9 -5 -1 -4 -23z"/>
<path d="M6291 2654 c0 -11 3 -14 6 -6 3 7 2 16 -1 19 -3 4 -6 -2 -5 -13z"/>
<path d="M6225 2590 c-3 -5 -1 -10 4 -10 6 0 11 5 11 10 0 6 -2 10 -4 10 -3 0
-8 -4 -11 -10z"/>
<path d="M6336 2585 c4 -8 1 -15 -7 -15 -7 0 -10 -2 -7 -5 3 -3 16 -2 29 3
l23 9 -22 12 c-18 10 -21 9 -16 -4z"/>
<path d="M6315 2540 c4 -6 11 -8 16 -5 14 9 11 15 -7 15 -8 0 -12 -5 -9 -10z"/>
</g>
</svg>
