<?xml version="1.0" encoding="UTF-8"?>
<svg width="13px" height="13px" viewBox="0 0 13 13" version="1.1" xmlns="http://www.w3.org/2000/svg" xmlns:xlink="http://www.w3.org/1999/xlink">
    <!-- Generator: Sketch 54.1 (76490) - https://sketchapp.com -->
    <title>1</title>
    <desc>Created with Sketch.</desc>
    <g id="页面1" stroke="none" stroke-width="1" fill="none" fill-rule="evenodd">
        <g id="余额提现" transform="translate(-16.000000, -154.000000)" fill-rule="nonzero">
            <g id="1" transform="translate(16.000000, 154.000000)">
                <g id="图标">
                    <g id="编组">
                        <rect id="矩形" fill="#000000" opacity="0" x="0" y="0" width="13" height="13"></rect>
                        <path d="M5.11875,9.9125 L5.11875,7.8609375 L3.0875,7.8609375 C1.95,7.8609375 1.0359375,8.775 1.0359375,9.9125 C1.0359375,11.05 1.95,11.9640625 3.0875,11.9640625 C4.225,11.9640625 5.11875,11.05 5.11875,9.9125 L5.11875,9.9125 Z M6.1546875,9.9125 C6.1546875,11.61875 4.7734375,13 3.0671875,13 C1.3609375,13 0,11.61875 0,9.9125 C0,8.20625 1.38125,6.825 3.0875,6.825 L6.175,6.825 C6.1546875,6.825 6.1546875,9.9125 6.1546875,9.9125 Z M7.8609375,9.9125 L7.8609375,7.8609375 L9.9125,7.8609375 C11.05,7.8609375 11.9640625,8.775 11.9640625,9.9125 C11.9640625,11.05 11.05,11.9640625 9.9125,11.9640625 C8.775,11.9640625 7.8609375,11.05 7.8609375,9.9125 L7.8609375,9.9125 Z M6.825,9.9125 C6.825,11.61875 8.20625,13 9.9125,13 C11.61875,13 13,11.61875 13,9.9125 C13,8.20625 11.61875,6.825 9.9125,6.825 L6.825,6.825 L6.825,9.9125 L6.825,9.9125 Z M5.11875,3.0875 L5.11875,5.1390625 L3.0875,5.1390625 C1.95,5.1390625 1.0359375,4.225 1.0359375,3.0875 C1.0359375,1.95 1.95,1.0359375 3.0875,1.0359375 C4.225,1.0359375 5.11875,1.95 5.11875,3.0875 L5.11875,3.0875 Z M6.1546875,3.0875 C6.1546875,1.38125 4.7734375,0 3.0875,0 C1.38125,0.0203125 0,1.38125 0,3.0875 C0,4.79375 1.38125,6.175 3.0875,6.175 L6.175,6.175 C6.1546875,6.175 6.1546875,3.0875 6.1546875,3.0875 Z M7.8609375,3.0875 L7.8609375,5.1390625 L9.9125,5.1390625 C11.05,5.1390625 11.9640625,4.225 11.9640625,3.0875 C11.9640625,1.95 11.05,1.0359375 9.9125,1.0359375 C8.775,1.0359375 7.8609375,1.95 7.8609375,3.0875 L7.8609375,3.0875 Z M6.825,3.0875 C6.825,1.38125 8.20625,0 9.9125,0 C11.61875,0.0203125 12.9796875,1.38125 12.9796875,3.0875 C12.9796875,4.79375 11.5984375,6.175 9.8921875,6.175 L6.825,6.175 L6.825,5.1390625 L6.825,3.0875 L6.825,3.0875 Z" id="形状" fill="#FFFFFF"></path>
                    </g>
                </g>
            </g>
        </g>
    </g>
</svg>